<mxfile host="Electron" modified="2024-05-08T03:23:27.523Z" agent="Mozilla/5.0 (Windows NT 10.0; Win64; x64) AppleWebKit/537.36 (KHTML, like Gecko) draw.io/22.0.2 Chrome/114.0.5735.289 Electron/25.8.4 Safari/537.36" etag="r1wMzvhiGO8Hstf2JiAh" version="22.0.2" type="device" pages="2">
  <diagram id="OL6ySEmSOm7pmEq-6aZ3" name="Slide ví dụ 3 (14/41)">
    <mxGraphModel dx="534" dy="563" grid="1" gridSize="10" guides="1" tooltips="1" connect="1" arrows="1" fold="1" page="1" pageScale="1" pageWidth="850" pageHeight="1100" math="0" shadow="0">
      <root>
        <mxCell id="0" />
        <mxCell id="1" parent="0" />
        <mxCell id="4SJidbXA4y_umGh_AN3M-1" value="- Customer(cusID, cusNm, cusStreet, cusCity)&lt;br&gt;- Account(accID, cusID, balance)&lt;br&gt; SELECT c.cusNm&lt;br&gt; FROM Customer c&lt;br&gt; WHERE 10000 &amp;gt;= (&lt;br&gt; SELECT SUM(a.balance)&lt;br&gt; FROM Account a&lt;br&gt; WHERE a.cusID=c.cusID)" style="text;whiteSpace=wrap;html=1;" vertex="1" parent="1">
          <mxGeometry x="110" y="70" width="280" height="140" as="geometry" />
        </mxCell>
        <mxCell id="4SJidbXA4y_umGh_AN3M-24" value="" style="shape=image;verticalLabelPosition=bottom;labelBackgroundColor=default;verticalAlign=top;aspect=fixed;imageAspect=0;image=data:image/png,iVBORw0KGgoAAAANSUhEUgAAAEsAAABLCAYAAAA4TnrqAAAAAXNSR0IArs4c6QAAAARnQU1BAACxjwv8YQUAAAAJcEhZcwAADsMAAA7DAcdvqGQAAAeuSURBVHhe7ZxrSBRRFMeva2VFZJaRZpaPoijo6QfpgQQFvexDSVAfqg8FRZBJ9IAigojEXvSUrIiKKIoIBCsQekEU1oceFJZZYWkPkx5aWWq3OeNZd2f3zOzMvXcWVvcHh/3f2Z2Z3b/33jn3zh1j/v37x1kUW3jwNYoNomY5IGqWA6JmOSBqlgOiZjkgapYDomY5wJWk9O3bt+z+/fvs0aNHrKGhgX39+pV9+/aNtbW14ScihzVr1rC8vLz2ApilIurr63lhYSFPT08H8ztN7Nu3r+M3SjdDzjk7ePAgGzp0KNu8eTN78+YNvtP5kDLr+/fvbNasWWzdunXs9+/fuLXzImwWGDVz5kxWXl6OWzo/QmZBR7148WL28OFD3NI1EDJrx44d7Pr161jqOjg2q6Kigu3cuRNLXQtHZmmXT7Z69eqIzJdU4CgpLSkpYatWrcISjcfjYcOGDWODBg1iffr0YXFxcfgOY7du3WI/f/7EUjtpaWlszJgxWBLj1atX7MWLF1gyMmTIEDZu3DgsOWflypVs/vz57QVvwhUqtNSAp6SkBCVtEJopXEsf+M2bN/XPUftDUPtruRn5WSdRUFAQdFxvbNq0idxHJGw3Q6hVtbW1WPIBQ4HXr18zLdNlOTk5hpoUyI8fP1D5iI+PRyXO+/fvUQWTkZGBSh5bZkEftX//fiy1Exsbyw4dOsQuXrzIEhMTcas5kOk3NTVhyUe/fv1QiWNlVmZmJip5bJl15coVfXDsBYw6c+aMPsi0S2Njo25YICrMomq8l7DXrOLiYlTtnDhxQk9KnQAZP4WsWVpfwj58+IAlI927d2epqalYkiekWdXV1fpVzMvatWvZsmXLsGQfmKqhSEhIQCVGfX09a2lpwZIRuCpDK1BFSLNOnz7d0Xyys7PZ7t27de0Ut8yyaoIq+ysgpFnnz5/XX6FKHz9+XH8VwS2z6urqUAUDNUsllmbBQBmaIaDlK1LJ45cvX1AZke2zrMxKTk5GpQZLs8Ac+DIQ27Ztw61ifPr0CZUPyLG6deuGJTHMOncgKSkJlRoszerVq5d+QgjZH/Xx40dUPvr3749KHOq4XgYPHoxKDSH7LFW4ZZZVzQprM1QJ9aPsZP6h6JRm1dTUoPIxYMAAVOKYNcOYmBh95kMlYTHrz58/evIYiIqaRV04APhDyPazgYTFrHfv3pHjQtmaBTdu//79iyUjKsacgYTFLG+uFsjAgQNRifH582dUwaiY+gkkLGZVVVWhMuKmWRFbs2Dal0LWLKof9BKxNauyshKVEdmrldkQCojYmvX06VNURmSHI1ZmRWTNgtkGKnGEuXrZH2Q2kwH07dsXlTpcN+vx48eojKgY5MK6LzN69OiBSh2umwV3sClUDHIhzzJDdN7NCtfNevDgASojKsZtnc6se/fuoTKSkpKCShzqPqSXiDPr+fPnpgNdFc0wcCmAPxFn1o0bN1AFA2sQZLEyK+I6+NLSUlTBwBpUWZqbm1EFA1M0qnHNLMiB/O83BqLizktrayuqYKxqnSiumQW3/M1+DMwzqejgraDWVcjimllHjx5FFQw0QRV3iq0m98yWC8jgilnQ/ODpCjPS09NRyWFlltniNhlcMSvULf4RI0agkgNu1Znx7NkzVGLMmzePTZs2jZWVleEWF8yCdOHatWtYohk+fDgqOawGyy9fvrScHLQCllddvXqV3b1715CCKDULlv+sX78eS+aMGjUKlRxWsxbwXS5fvowlZ/inPP5dhlKzjhw5YjrL4M/o0aNRyRFqphUWsoBpToDPnzx5Utc9e/Y09q/am+RiU6dRWVnJe/fu3bHw1Sy0psPb2trIYziN/Px88hz+cfjwYXJfsygpKenYd9KkSYb3lNQsWHO6fPly9uvXL9xiztixY5Vl13aGTBs2bLAcdvkDMyTw0JaXrKwsVO0oMWv79u36w5h2CPwCMowcORKVOfC0GqxjP3bsGHnv0sulS5fYjBkzDH/wyZMno0L8q5lIwNp3j8fTUXVDxYULF8jjiER1dTV5DrMYP34837t3L799+7bebVRUVHAteeZTpkwhP19TU2M4n5RZjY2NPC0tjTyRWdTW1pLHEg2tkyfPIxsTJkwIOpdUM9y1a5dhyXcooL9SvbJl6tSpqNSyaNEiVD6EzYKbBQcOHMCSPRYuXIhKHXPnzkWlDhhGLV26FEt+BFY1u3H27Fmy+lpFVVUVeSyZgAfZ4+LiyPOJhnZlJ88lXLOePHmCyh7Tp09XvtQagJU4S5YswZI8kIhu3boVS0aEzbK6s0JRUFCASj1btmzRf6QK4Fimj7BQ1c1ObNy4kazCVGRnZ5PHUBl79uwhz+0k5syZw1tbW8njQwibVVZWRp4wMLTOUs9nqGOoDq1TJr+DncjJyeFNTU3kcb0hbBaM7yZOnEie2D+KiorI/d2IlpYWvmLFCvJ7WIXW53EtcyeP6R9SSSlk0Gb/TkUb/3FtGETu53acOnWKJyYmkt/LP+DJ2nPnzpHHoELKLIiGhgb90VrtSqc3ufj4eJ6bm8vv3LlDfj5cAaOL4uJiPnv2bJ6UlKQPyWJjY3lqaipfsGCBnvo0NzeT+5pF9F9vOkDJrENXIWqWA6Jm2Yax/+mLSmFfqFLyAAAAAElFTkSuQmCC;" vertex="1" parent="1">
          <mxGeometry x="220" y="220" width="20" height="20" as="geometry" />
        </mxCell>
        <mxCell id="4SJidbXA4y_umGh_AN3M-25" value="c.cusNm" style="text;html=1;align=center;verticalAlign=middle;resizable=0;points=[];autosize=1;strokeColor=none;fillColor=none;" vertex="1" parent="1">
          <mxGeometry x="240" y="220" width="70" height="30" as="geometry" />
        </mxCell>
        <mxCell id="4SJidbXA4y_umGh_AN3M-26" value="" style="endArrow=none;html=1;rounded=0;" edge="1" parent="1">
          <mxGeometry width="50" height="50" relative="1" as="geometry">
            <mxPoint x="229.71" y="290" as="sourcePoint" />
            <mxPoint x="229.71" y="260" as="targetPoint" />
          </mxGeometry>
        </mxCell>
        <mxCell id="4SJidbXA4y_umGh_AN3M-28" value="" style="shape=image;verticalLabelPosition=bottom;labelBackgroundColor=default;verticalAlign=top;aspect=fixed;imageAspect=0;image=data:image/png,iVBORw0KGgoAAAANSUhEUgAAAGAAAABbCAYAAACMJYBWAAAAAXNSR0IArs4c6QAAAARnQU1BAACxjwv8YQUAAAAJcEhZcwAADsMAAA7DAcdvqGQAAAi7SURBVHhe7ZxpSBfPH8enzC4r04ys6ADDzEqtKMjo0CedWNFBBUYYkRQRdFA9iLDoIqIHEQU9SHoQHRB2C110YdGlllB0l2lmZaWlqTn/+Qyf7x9/Xz+6s9/v7s5W+4I3fmZxZ3e/7905dma2VUNDA2ce2miNfz004RmgGc8AzXgGaMYzQDOeAZrxDNCMZ4BmPAM04xmgmT/qVUR1dTV7/vw5e/XqFSstLWUfPnxgX758Yd+/f5f69esXq6+vZ3V1dUxcF+7lLrp3786OHz+OKRcbwDln+fn57PLly+zu3bvs3r177PXr13L7n0zv3r3Zu3fvMOVCA+CHPnz4MDtx4gQrKyvDrX8P/gbAo8rdoKtXr/Lx48fDzfBXSxjwn+vWXglDGb548WKWkpLCrl27hlv/HbQakJOTw+Lj49mhQ4dwy7+HNgO2b9/OZs2axT5+/Ihb/lEal0dOSDQV+aJFi8jy8V+Q1joAmpALFy5k2dnZuMXDUQNWr17Njh07hikPwLF+wO7du9natWsxFRytWrViQ4cOZYmJibISHzBgAOvRoweLjo5mnTp1Yu3bt2ft2rWT//v792/ZM/7x4wfLyMhgly5dktsB+L81a9awpUuXspCQENxqL3Ac6A3/n8blkV26c+cOb9OmTZPy0IzEj8Vnz57NRTeef/r0iTyOkWpqario+JvkLczk169fJ/exW7YbIO48PnDgwCYXraqoqCi+ZcsWLvoLZP5mVV9fz5csWdLkOOKp4pmZmbyiooLczy7ZbsDy5cubXKyKWrduzZctW8a/fv1K5huMRLHE09PTyeP27duXX7lyhdzPDtlqwP379+UPSV1oS4qIiOC5ublknlaptraWT5o0iTw+nPP69eu5qDvIfa2UrQakpqaSF9iSevbsyZ88eULmZ7UqKyv5yJEjyfMATZgwgZeWlpL7WiXbDLhx4wZ5US0pMjKSFxUVkfnZpbdv38rjUucDgiKpsLCQ3NcK2WbAjBkzyAtqTlAJnjlzhszLbuXk5JDn5FOXLl1sqxdsMaCkpMR0s1O0xcm8nNKKFSvI8/KpQ4cO/Ny5c+S+wcgWA/bs2UNeRHOCSre8vJzMyylBc7lPnz7k+fkkOnf84sWL5P6BypZXEadOncJIDdHcZN26dcOUHsQdznbs2IEpGhhznjlzJhOtO9wSPJa/ioCB865du8ruvwrQNRcVIROtH9yil7Fjx7Jbt25higaGFWGcGl59BIvlT8Dt27eVf3xg3Lhxrvnxga1bt2LUPO/fv2dz586V75mCxXIDHj58iJEaaWlpGLkDuCGSkpIw1Tw3b95kO3fuxFTgWG6A6ERhpEZycjJG7kG0iDBqmc2bN8t5SsFguQFQnqsimqpKd5vTzJ8/X9ZjRtTW1rJVq1ZhKjAsNwBmq6kimn0sNDQUU+4BxgkmTpyIqZY5e/asnMsUKJYbUFlZiZExopuPkfuYNm0aRsYEUxdYbgC0lVURXXyM3MfkyZOVR8lOnz4d8OwOyw0wU6R07NgRI/cRGRnJYmNjMdUy0Ow+evQopsxhuQFhYWEYGQNju25myJAhGBlz4cIFjMxhuQEwKK4K9JrdzODBgzEyBqZVmumA+rDcgKioKIyMcbsBgwYNwsiYmpoaVlRUhCl1LDcgJiYGI2MqKiowcidQD5ihoKAAI3W0GlBcXIyROzHbSnvz5g1G6lhuQFxcHEbGwAKMQMpNpwgPD8dIDVg2ZRbLDRg9erRy+7mhoYE9e/YMU+7DN7tOlaqqKozUsdyAzp07s2HDhmHKGLNvT50EKlYzmP1/wHIDgNTUVIyMefDgAUbuw+wPCqNqZrHFgDlz5mBkTOPJsm6jvLwcIzXg6TeLLQaMGDFCuTJ+9OiRa1tDJSUlGKkRyBClLQYA6enpGBkDa8XcCCwIN4OZFqAP2wzIzMxUfiTdukjv8ePHGKkBaxbMYpsBERER0gQVoCUUzKCGXZhpIMBMCVc9AQAM16k+Bdu2bcPIHcBnEcwUQaojaP7YagAsG8rKysJUy0A94KYm6fnz5zFSw0yd9x8aT5OzQ3V1dTwxMbHJND9KycnJcvEElY/TEj168hwpwQogKg8V2W4ASJTvcl4ldfL+2rt3L5mHk4Lp6NS5Nafs7GwyHxU5YgBo37595Mn7KywsjBcUFJB5OKV58+aR50YpISFBrjuj8lGRYwaAFixYQF6Ev2JiYvjnz5/JPOxWXl6e8rIq+D9YiELloypHDaiurpbLfqiL8deYMWPkEiIqH7sE5wd3NHU+lGAdGZWPGTlqAAhWPQ4fPpy8IH/BGrOqqioyHzuUkZFBngcluJHguxdUPmbkuAGgsrIynpSURF6Yv2ARHay4ofKxUps2bSKPTyk2NjbgxeL+0mIACJ6ElJQU8gL9BQvlgi1rmxM0ezds2EAelxLUT6KTRuYViLQZAIIyV7Vihgpv3bp1ltYL8CSmpaWRx6MUFxfHi4uLybwClVYDfNq/f7/8FgR10f6Kjo6WTVpY00XlpSIouw8cOCA/g0Adg9KUKVMs+1xCY7nCAFB+fr5yvQCChX0rV66Uy0dVK8OnT5/yrKws3q9fPzJPSqGhobJ+CKat35Jc9dlKWPIj7ky2ceNGJuoI3GoMzMaDT9fARCp4KwnTSdq2bSs/USP6E3IRBazpMjvwM2rUKHbw4MGAXjMr4++IGwRlM7Sxw8PDm9yRTig+Pp4fOXLEtru+sVxpgE/fvn3ju3bt4uLOJn8oKxUSEsKnTp3KT5486cgP75NrP13sT2FhofzcWW5uroytWKEIYxUwgwPe5U+fPl3Las0/xoDGwCqcvLw8OZL28uVL9uLFCzktELZDuf/z50/5fzCxCpYbwQy3Xr16yfqhf//+LCEhQa5NgzpDdRKZXfyRBvxN2Doi5mGMZ4BmPAM04xmgGc8AzXgGaMYzQDOeAZrxDNCMZ4BmPAM04xmgGc8AzXgGaMYzQDOeAZrxDNAKY/8D/wQwgCEbYmMAAAAASUVORK5CYII=;" vertex="1" parent="1">
          <mxGeometry x="193.8" y="300" width="31.65" height="30" as="geometry" />
        </mxCell>
        <mxCell id="4SJidbXA4y_umGh_AN3M-29" value="10 000 &amp;gt;= SoB" style="text;html=1;align=center;verticalAlign=middle;resizable=0;points=[];autosize=1;strokeColor=none;fillColor=none;" vertex="1" parent="1">
          <mxGeometry x="220" y="310" width="100" height="30" as="geometry" />
        </mxCell>
        <mxCell id="4SJidbXA4y_umGh_AN3M-30" value="" style="endArrow=none;html=1;rounded=0;" edge="1" parent="1">
          <mxGeometry width="50" height="50" relative="1" as="geometry">
            <mxPoint x="229.71" y="378" as="sourcePoint" />
            <mxPoint x="229.71" y="348" as="targetPoint" />
          </mxGeometry>
        </mxCell>
        <mxCell id="4SJidbXA4y_umGh_AN3M-31" value="" style="shape=image;verticalLabelPosition=bottom;labelBackgroundColor=default;verticalAlign=top;aspect=fixed;imageAspect=0;image=data:image/png,iVBORw0KGgoAAAANSUhEUgAAAHkAAABdCAYAAACBx8lpAAAAAXNSR0IArs4c6QAAAARnQU1BAACxjwv8YQUAAAAJcEhZcwAADsMAAA7DAcdvqGQAAAYLSURBVHhe7Z25TixHFIbrmsAOLEFgC1/JFvAELHJsFsk3HSC2xJI6YMkthCWnLHLOkjqAywuwvADLEwAvgCBwyjVfm4Pbpeo7MNO1ddUnjZhuDXSd89M/1X1ONe8eHx8/qUyj+eL5a6bBZJETIIucAFnkBMgiJ0AWOQGyyAmQRU6ALHICZJETIIucAFnkBMgiJ0AWOQGyyAmQRU6AjkQ+PT1Vk5OT6v7+/nlP5q2QO3JILm3T8Zl8dnamhoaGnAyyaZAzckcOXdCVXT88PKipqSm1vr7+vCfTDnJFzsidK2r5m8zAZ2Zmsn1/BnJDjnycEF2L3NvbW3w9OjpSo6Oj6vLystjO/Ac5ITfkCCRnruha5N3dXdVqtYr3t7e3amxsTG1tbRXbGVXkgpyQGyBX5MwlXYvc19enDg8P1cbGxvMepVZXV5O3b7FnciGQI3JFzlxSy99kWF5eVufn52pgYKDYTtm+dXsmJ+SGHPmgNpFhZGREXVxc/M++uRbc29srtlOAWIm5bM/khNz4olaRQex7bW2t2OZSYXFxUS0sLDTavomNGIlVLo/IgQ971qldZIEAj4+PX2aS+/v7xW94E+2bmIiNGIGYiV1+0X1jTWSYmJhQ19fXanx8vNi+urpqnH2LPRMbECsxE3soWBUZsKqTkxOjfceOyZ6J1bc961gXWTDZNzPQm5ubYjsmGDNjD9WedZyJDFgYM83h4eFiG4sjWR8/fiy2Y4CxMmaxZ2IhppDsWcepyDA4OFgkZWlpqdjG6mZnZ9XKykqxHTKMkbGKPRMDsRBTyDgXWdjc3FQHBwcv9r29vR2sfYs9M0ZgzIydGGLAm8gwPT1ttO+QatSMxWTPjD0WvIoMYt9zc3PFNlYYSo1ar/0yxhjsWce7yAKVmZ2dnRf7JsFcf/q4S8YxObb8ojEmxua6elQXwYgM8/PzxXWm2LePFiO9NYexMCbGFitBiQzcyCepPuzbZM+MxWdxoQ6CExm4Y2Syb1s1an5muTWnbM+h3b3qhCBFFsS+bdaoTbXf2O1ZJ2iRwVSjrqvFyNSaw7Fit2ed4EUGLLPOFiOx5xBac1wQhchCHS1GJnv22ZrjgqhEBpN9v7ZGHWJrjguiExnEvk01apN9sy/U1hwXRCmyYKpRc6aW7Zv37Iul9muDqEWGz7UYxdCa44LoRQYsl2tb3b5jaM1xQSNEFhCyfJklsC8le9ZplMjY829/nij184VSH54s+rsPxX5uV75m9t1UGiFyefb89w+/KvVVv1Jffqv6f/r3rG43+2460Yusz557ShG9f9/fdvadAlGLzL1nffb81+8/qqH+HvX9Nz3qj1++rpx9J7W8lv8m89bX09nBf6ApXrw3fcbm6+7u7lOr1XoZA6+niZXxs+UXnyl/Dz+Dn2X6rM2X6/xFdyab7j1jya+ZPfMZPmuzdBkiUYlcVRp8y80NPmurdBkqUYhcd2lQ7n3XVboMneBFlr5nG6XBqtJlSH3fdRC0yNJYZ7M0aCpdhtL3XRdBioxlcplTbqyz2blRtm+5pubYjKEJ9h2cyFV9zy46NzgGx/LZ922DoEQWe5bKkY++Z47FMUNcttMpQYgsqwbL9uyz75ljmvq+GWOMi+a9i2xa1M2ZFELfs75shzEy1pgWzYNXkasWdYfUWCez7xgXzQteRI5xUXdMi+Z1nItc9cyNGBZ1Vy2aD92+nYnM9SZF+xifuVGm6pknITckOBHZ1BYb0zM3TOj2HXJDgnWRq9piY3rmRhXEUNUOHBLWRBZ7bnpbLLEQk9SziTW0fjIrIkthP6VVC9KQULZvchCCfdcusl7YT2nVgt5PFkpDQm0iY02mwn7T7LkdYt8hNSTUIrLYc0prfttR1ZDgw767Fpm/PSk8kqET5Jao3k8mcxVX1CKyYLOwHyvkQu8ni05kyPbcHt2+XdK1yPK8yWzP7RH7loYEV3QsMteDTXqgmSvIld6QYJt3LKN4fv9qKK9xOZDP3u5gpo3otgs0HYmciYtaJl6ZsMkiJ0AWOQGyyAmQRU6ALHICZJETIIucAFnkBMgiNx6l/gEo++tNMVZqaQAAAABJRU5ErkJggg==;" vertex="1" parent="1">
          <mxGeometry x="210" y="388" width="52.04" height="40" as="geometry" />
        </mxCell>
        <mxCell id="4SJidbXA4y_umGh_AN3M-32" value="c.cusID = a.cusID" style="text;html=1;align=center;verticalAlign=middle;resizable=0;points=[];autosize=1;strokeColor=none;fillColor=none;" vertex="1" parent="1">
          <mxGeometry x="186.02" y="428" width="120" height="30" as="geometry" />
        </mxCell>
        <mxCell id="4SJidbXA4y_umGh_AN3M-33" value="" style="endArrow=none;html=1;rounded=0;" edge="1" parent="1">
          <mxGeometry width="50" height="50" relative="1" as="geometry">
            <mxPoint x="190" y="490" as="sourcePoint" />
            <mxPoint x="229.71" y="458" as="targetPoint" />
          </mxGeometry>
        </mxCell>
        <mxCell id="4SJidbXA4y_umGh_AN3M-34" value="" style="endArrow=none;html=1;rounded=0;entryX=0.451;entryY=1;entryDx=0;entryDy=0;entryPerimeter=0;" edge="1" parent="1" target="4SJidbXA4y_umGh_AN3M-32">
          <mxGeometry width="50" height="50" relative="1" as="geometry">
            <mxPoint x="280" y="490" as="sourcePoint" />
            <mxPoint x="239.71" y="468" as="targetPoint" />
          </mxGeometry>
        </mxCell>
        <mxCell id="4SJidbXA4y_umGh_AN3M-35" value="Customer c" style="text;html=1;align=center;verticalAlign=middle;resizable=0;points=[];autosize=1;strokeColor=none;fillColor=none;" vertex="1" parent="1">
          <mxGeometry x="120" y="488" width="80" height="30" as="geometry" />
        </mxCell>
        <mxCell id="4SJidbXA4y_umGh_AN3M-36" value="" style="shape=image;verticalLabelPosition=bottom;labelBackgroundColor=default;verticalAlign=top;aspect=fixed;imageAspect=0;image=data:image/png,iVBORw0KGgoAAAANSUhEUgAAAEgAAABiCAYAAADz2pUXAAAAAXNSR0IArs4c6QAAAARnQU1BAACxjwv8YQUAAAAJcEhZcwAADsMAAA7DAcdvqGQAAAhvSURBVHhe7ZxZSBdfFMevZvtitplUlEa70mbLQytFEBVR0UoKBkFFVrTZ9tJzEBEl0UvYS2QRVGr7AklUGG1mGBYlrVrZYmbr/OfMnF+/Wc5sv99M/3vx94GD58jce/U7d+7cbW7cnz9/JBbDknj8GcOCmEAOxARyICaQAzGBHIgJ5EBMIAdiAjnwzzqK3759Y2fOnGGXL19mL1++ZF++fGGdO3dmAwcOZFOnTmXjx4/HK/kicIEkSWIHDx5kW7duZR8/fsTfmhkxYgTbs2cPGzduHP4mWKCsS5cuYWQDCBSU/fz5U1q4cCHcAFeWkJAgHThwgMzLT2toaJCSkpLIv8FkVAZ+WU5ODl2ojcXHx0vFxcVkfn7Z4cOHybKNlpiYGJxAhYWFZKFuLCUlRaqrqyPz9cPk9o4s12hysxCMQI2NjVJqaipZqFvLy8sj847WKioqyPKM1qZNG+nt27fBCFRQUEAW6sXgD6ytrSXzj8bWr19Plme0tWvXKtcHItDEiRPJQr3azp07yfwjNajZXbp0IcvSWosWLaTq6molje8CwV1v1qwZWbBX6927t/Tr1y+ynEjsyJEjZDlGW758+d80vgt07NgxslAw+IcXLVok5ebmKm+49PR08jqtXbhwgSwnEps+fTpZhtbg5lZVVf1N47tAmzZtMhWalpYmlZSUkNdfv35dGj58uClNyLR3Mxp79eqVq5qdlZWlS+e7QDNmzNAV2K9fP6mmpoa8NmTyMESaPXu2Ll3IoM2ADieVzovt2rWLzF9r0AeDt5w2ne8CyWMrXaFuHxFoQDMzM3VpQ1ZaWkqm8WIZGRlk3lqbP3++KZ3vAmm78EOHDiWvsbLKykrlDaL9o8G2bdtGXu/Wbt++bcqTsjt37pjS+jrdIWeoG5AuWLAAPXfIjyOT+x8Yhbl48SJ6kSEPLdCzZtasWUy+oRhpMCoWjdXX1+vuSFlZGXmdnb1580Zq1aqVLh9oXGXhyeudDNqv5ORkXX6U3bhxg0zvaw2S+yzoMdauXTv6jjjQrVs3JncFMFL5/fs3u3btGkbeuHr1KpOHDBjRTJs2jY0ePRojPb4KFBcXhx5TxJHvPEbeWLJkCXphbt68iZ43jh49ip4127dvR8+MrwLJDSx6jA0ZMgQ970yaNIl17NgRIxX5EUDPPfLjxU6cOIERzYQJE+xnM6nnLhrbvXu3YlbPtFuDV6785/01mJuRHzXyWisrKirS5UHZ+fPnybQh810gvyw/P9/0z5SXl5PXWll2drYpD62NGTOGTKc1blc1Jk+ejF4YL+3Q9+/f2cmTJzGi2bFjB3rWcCvQgAEDlDeallu3bqHnDPSdPn36hJEZefzH5GERRtZwKxAwduxY9FS81KBTp06hRyP3ztGzRyiBHj58yH78+IGRNbDUdPr0aYzMDBo0iM2ZMwcje7gWaNSoUeipwGv70aNHGFkDXQK5R46RmS1btjB55I6RPVwLNHLkSF3nE7h37x561tg1zn369GGLFy/GyBmuBYLOYlpaGkYq9+/fR88aO4E2bNjAEhISMHKGa4EAWJLW4lSDHj9+zCorKzHS07VrV7Zs2TKM3MG9QMOGDUNPxUkgu8Y5NzeXtW7dGiN3cC+QcUbg3bt3yu4QK0pKStDT07ZtW7Zq1SqM3COcQAC87imgY1haWoqRnpycHNapUyeM3MO9QD169DD9Y1ZtzLlz55SugBF4pVMzlW7gXiAgIyMDPRVoiCmsHq+ZM2eyvn37YuQNIQWiapA88lZ2sFGsXr0aPe8IIdDgwYPRU6EEgnFabW0tRmFg4g62+EWKEAKlp6ejp/LixQv29etXjFSKi4vR07Nu3Tr0IkMIgYzTtzAYNbZDlEDdu3dnS5cuxSgyhBAoKSmJJScnY6SifcygRlEdyDVr1rCWLVtiFBlCCAQY26GnT5+ix1hRURF6Ydq3b89WrlyJUeQIK9Dz58/Ro1/vK1asYImJiRhFjjAC9e/fHz2VZ8+eKT8bGxuVzela4LGKtnEOIYxAMAuoJSQQbAZvaGhQ/BDZ2dksJSUFo+gQVqDq6mrlbWZ8vGBYsXHjRoyiRxiBYEwG6/0hYFnn9evXptf73LlzlV0ifiGMQICxHYKVC6hJWvLy8tDzB6EEgrUyLfn5+eipwJAC5rH9ROgaVF5ejp6K37UHEFogLZmZmWzKlCkY+YdQAtk1vps3b0bPX4Q6muLz58+mfUMA1KyKigrXi4FeEKoGdejQwTRoBaDfE4Q4gFACAcbHDHrMWVlZGPmP8ALBmCvaKQ07hBdo3rx56AWDcAJ9+PABPZX379+jFwxCCQQLg/CJuRYYjwWJUALt379fedVriQmEwMTY3r17MQrjtIs+WoQRCD5IqampwShMXV0desEgjEDweFEYG22/EUIgmHN+8OABRnpiNUjGqvYAcIpMkHAvEDTCdrvGjEvQfsO9QAUFBbrv0Iw0eYEOHTqEHg28/oOEa4Hg2wyr3WQh7GqXH3AtUGFhIXrWNFmBYFHw+PHjGFkT1ERZCG4FKisrM615UTRv3hy9YOBWoLNnz6JnT5MVCLb0uqFJCgS9Y7cfz2nX64OAS4Gg/YHDBNwA2/OChEuBvHyb2iQFunv3LnrOwHGnQcKlQFVVVeg506tXL/SCgUuBnjx5gp4zqamp6AUDdwLBV812h+IaifQjFbdwJ5CXCTBYUTV+puA33AkE5067BT7X1J44EwTcCeRl8zd1voffcCcQfELgtuGFHa1Bw51AAHUClRE4lQG23QUNlzvMYCkHTmexmu6A0xiuXLminB4VNFzWIBg+wA76nj174m/CwLlo+/bt+yfiAFzvUYTdHHA4P5wFVF9fr9Qq+AbMeNhAkAi1ifP/gMtHjB8Y+w80pdrSpyuZtgAAAABJRU5ErkJggg==;" vertex="1" parent="1">
          <mxGeometry x="283.97" y="490" width="22.05" height="30" as="geometry" />
        </mxCell>
        <mxCell id="4SJidbXA4y_umGh_AN3M-37" value="a.custID, SUM (a.balance)" style="text;html=1;align=center;verticalAlign=middle;resizable=0;points=[];autosize=1;strokeColor=none;fillColor=none;" vertex="1" parent="1">
          <mxGeometry x="300" y="500" width="160" height="30" as="geometry" />
        </mxCell>
        <mxCell id="4SJidbXA4y_umGh_AN3M-38" value="" style="endArrow=classic;html=1;rounded=0;exitX=0.994;exitY=0.543;exitDx=0;exitDy=0;exitPerimeter=0;" edge="1" parent="1" source="4SJidbXA4y_umGh_AN3M-37">
          <mxGeometry width="50" height="50" relative="1" as="geometry">
            <mxPoint x="500" y="440" as="sourcePoint" />
            <mxPoint x="490" y="515" as="targetPoint" />
          </mxGeometry>
        </mxCell>
        <mxCell id="4SJidbXA4y_umGh_AN3M-40" value="SoB" style="text;html=1;align=center;verticalAlign=middle;resizable=0;points=[];autosize=1;strokeColor=none;fillColor=none;" vertex="1" parent="1">
          <mxGeometry x="490" y="500" width="50" height="30" as="geometry" />
        </mxCell>
        <mxCell id="4SJidbXA4y_umGh_AN3M-41" value="" style="endArrow=none;html=1;rounded=0;" edge="1" parent="1">
          <mxGeometry width="50" height="50" relative="1" as="geometry">
            <mxPoint x="350" y="560" as="sourcePoint" />
            <mxPoint x="350" y="540" as="targetPoint" />
          </mxGeometry>
        </mxCell>
        <mxCell id="4SJidbXA4y_umGh_AN3M-42" value="Account a" style="text;html=1;align=center;verticalAlign=middle;resizable=0;points=[];autosize=1;strokeColor=none;fillColor=none;" vertex="1" parent="1">
          <mxGeometry x="310" y="570" width="80" height="30" as="geometry" />
        </mxCell>
      </root>
    </mxGraphModel>
  </diagram>
  <diagram name="Trung tâm thể thao" id="2_FGt9-6x0B5f-DSuQ9d">
    <mxGraphModel dx="1311" dy="490" grid="1" gridSize="10" guides="1" tooltips="1" connect="1" arrows="1" fold="1" page="1" pageScale="1" pageWidth="850" pageHeight="1100" math="0" shadow="0">
      <root>
        <mxCell id="0" />
        <mxCell id="1" parent="0" />
        <mxCell id="6bMBB1hP74ETGcrVjKi6-7" value="b.malop, sotien, b.mahv, sobl" style="text;html=1;align=center;verticalAlign=middle;resizable=0;points=[];autosize=1;strokeColor=none;fillColor=none;" vertex="1" parent="1">
          <mxGeometry x="436" y="600" width="180" height="30" as="geometry" />
        </mxCell>
        <mxCell id="hysLP1X_mNI7AYVTysvt-1" value="&lt;b&gt;Khoahoc&lt;/b&gt;(makh, tenkh, ngaybd, ngaykt)  &lt;br&gt;&lt;b&gt;Giaovien&lt;/b&gt;(magv, tengv, diachi, dienthoai)   &lt;br&gt;&lt;b&gt;Hocvien&lt;/b&gt;(mahv, tenhv, phai, ngaysinh, diachi)  &lt;br&gt;&lt;b&gt;Lophoc&lt;/b&gt;(malop, makh, magv, hocphi)   &lt;br&gt;&lt;b&gt;Bienlai&lt;/b&gt;(sobl, malop, ngaynop, mahv, sotien) &lt;br&gt;&lt;span style=&quot;white-space: pre;&quot;&gt;&#x9;&lt;/span&gt;&lt;b&gt;Hãy mô tả tiến trình tối ưu hóa câu truy vấn sau: &lt;br&gt;SELECT&lt;/b&gt;  sobl, tenhv, sotien &lt;br&gt;&lt;b&gt;FROM&lt;/b&gt; Hocvien  H, Lophoc  L, Khoahoc  K, Giaovien G, Bienlai B &lt;br&gt;&lt;b&gt;WHERE&lt;/b&gt; H.mahv = B. mahv &lt;b&gt;AND&lt;/b&gt; L.malop = B. malop  &lt;br&gt;&lt;span style=&quot;white-space: pre;&quot;&gt;&#x9;&lt;/span&gt;&lt;b&gt;AND&lt;/b&gt; K.makh = L. makh &lt;b&gt;AND&lt;/b&gt; G.magv = L. magv  &lt;br&gt;&lt;span style=&quot;white-space: pre;&quot;&gt;&#x9;&lt;/span&gt;&lt;b&gt;AND&lt;/b&gt;  dienthoai = “0987654321” &lt;b&gt;AND&lt;/b&gt; tenkh = “Yoga”  &lt;br&gt;&lt;span style=&quot;white-space: pre;&quot;&gt;&#x9;&lt;/span&gt;&lt;b&gt;AND&lt;/b&gt; ngaybd = “01/06/2016” &lt;b&gt;AND&lt;/b&gt; ngaykt = “01/12/2016”" style="text;whiteSpace=wrap;html=1;" vertex="1" parent="1">
          <mxGeometry x="160" y="100" width="370" height="180" as="geometry" />
        </mxCell>
        <mxCell id="hysLP1X_mNI7AYVTysvt-2" value="" style="shape=image;verticalLabelPosition=bottom;labelBackgroundColor=default;verticalAlign=top;aspect=fixed;imageAspect=0;image=data:image/png,iVBORw0KGgoAAAANSUhEUgAAAGAAAABbCAYAAACMJYBWAAAAAXNSR0IArs4c6QAAAARnQU1BAACxjwv8YQUAAAAJcEhZcwAADsMAAA7DAcdvqGQAAAi7SURBVHhe7ZxpSBfPH8enzC4r04ys6ADDzEqtKMjo0CedWNFBBUYYkRQRdFA9iLDoIqIHEQU9SHoQHRB2C110YdGlllB0l2lmZaWlqTn/+Qyf7x9/Xz+6s9/v7s5W+4I3fmZxZ3e/7905dma2VUNDA2ce2miNfz004RmgGc8AzXgGaMYzQDOeAZrxDNCMZ4BmPAM04xmgmT/qVUR1dTV7/vw5e/XqFSstLWUfPnxgX758Yd+/f5f69esXq6+vZ3V1dUxcF+7lLrp3786OHz+OKRcbwDln+fn57PLly+zu3bvs3r177PXr13L7n0zv3r3Zu3fvMOVCA+CHPnz4MDtx4gQrKyvDrX8P/gbAo8rdoKtXr/Lx48fDzfBXSxjwn+vWXglDGb548WKWkpLCrl27hlv/HbQakJOTw+Lj49mhQ4dwy7+HNgO2b9/OZs2axT5+/Ihb/lEal0dOSDQV+aJFi8jy8V+Q1joAmpALFy5k2dnZuMXDUQNWr17Njh07hikPwLF+wO7du9natWsxFRytWrViQ4cOZYmJibISHzBgAOvRoweLjo5mnTp1Yu3bt2ft2rWT//v792/ZM/7x4wfLyMhgly5dktsB+L81a9awpUuXspCQENxqL3Ac6A3/n8blkV26c+cOb9OmTZPy0IzEj8Vnz57NRTeef/r0iTyOkWpqario+JvkLczk169fJ/exW7YbIO48PnDgwCYXraqoqCi+ZcsWLvoLZP5mVV9fz5csWdLkOOKp4pmZmbyiooLczy7ZbsDy5cubXKyKWrduzZctW8a/fv1K5huMRLHE09PTyeP27duXX7lyhdzPDtlqwP379+UPSV1oS4qIiOC5ublknlaptraWT5o0iTw+nPP69eu5qDvIfa2UrQakpqaSF9iSevbsyZ88eULmZ7UqKyv5yJEjyfMATZgwgZeWlpL7WiXbDLhx4wZ5US0pMjKSFxUVkfnZpbdv38rjUucDgiKpsLCQ3NcK2WbAjBkzyAtqTlAJnjlzhszLbuXk5JDn5FOXLl1sqxdsMaCkpMR0s1O0xcm8nNKKFSvI8/KpQ4cO/Ny5c+S+wcgWA/bs2UNeRHOCSre8vJzMyylBc7lPnz7k+fkkOnf84sWL5P6BypZXEadOncJIDdHcZN26dcOUHsQdznbs2IEpGhhznjlzJhOtO9wSPJa/ioCB865du8ruvwrQNRcVIROtH9yil7Fjx7Jbt25higaGFWGcGl59BIvlT8Dt27eVf3xg3Lhxrvnxga1bt2LUPO/fv2dz586V75mCxXIDHj58iJEaaWlpGLkDuCGSkpIw1Tw3b95kO3fuxFTgWG6A6ERhpEZycjJG7kG0iDBqmc2bN8t5SsFguQFQnqsimqpKd5vTzJ8/X9ZjRtTW1rJVq1ZhKjAsNwBmq6kimn0sNDQUU+4BxgkmTpyIqZY5e/asnMsUKJYbUFlZiZExopuPkfuYNm0aRsYEUxdYbgC0lVURXXyM3MfkyZOVR8lOnz4d8OwOyw0wU6R07NgRI/cRGRnJYmNjMdUy0Ow+evQopsxhuQFhYWEYGQNju25myJAhGBlz4cIFjMxhuQEwKK4K9JrdzODBgzEyBqZVmumA+rDcgKioKIyMcbsBgwYNwsiYmpoaVlRUhCl1LDcgJiYGI2MqKiowcidQD5ihoKAAI3W0GlBcXIyROzHbSnvz5g1G6lhuQFxcHEbGwAKMQMpNpwgPD8dIDVg2ZRbLDRg9erRy+7mhoYE9e/YMU+7DN7tOlaqqKozUsdyAzp07s2HDhmHKGLNvT50EKlYzmP1/wHIDgNTUVIyMefDgAUbuw+wPCqNqZrHFgDlz5mBkTOPJsm6jvLwcIzXg6TeLLQaMGDFCuTJ+9OiRa1tDJSUlGKkRyBClLQYA6enpGBkDa8XcCCwIN4OZFqAP2wzIzMxUfiTdukjv8ePHGKkBaxbMYpsBERER0gQVoCUUzKCGXZhpIMBMCVc9AQAM16k+Bdu2bcPIHcBnEcwUQaojaP7YagAsG8rKysJUy0A94KYm6fnz5zFSw0yd9x8aT5OzQ3V1dTwxMbHJND9KycnJcvEElY/TEj168hwpwQogKg8V2W4ASJTvcl4ldfL+2rt3L5mHk4Lp6NS5Nafs7GwyHxU5YgBo37595Mn7KywsjBcUFJB5OKV58+aR50YpISFBrjuj8lGRYwaAFixYQF6Ev2JiYvjnz5/JPOxWXl6e8rIq+D9YiELloypHDaiurpbLfqiL8deYMWPkEiIqH7sE5wd3NHU+lGAdGZWPGTlqAAhWPQ4fPpy8IH/BGrOqqioyHzuUkZFBngcluJHguxdUPmbkuAGgsrIynpSURF6Yv2ARHay4ofKxUps2bSKPTyk2NjbgxeL+0mIACJ6ElJQU8gL9BQvlgi1rmxM0ezds2EAelxLUT6KTRuYViLQZAIIyV7Vihgpv3bp1ltYL8CSmpaWRx6MUFxfHi4uLybwClVYDfNq/f7/8FgR10f6Kjo6WTVpY00XlpSIouw8cOCA/g0Adg9KUKVMs+1xCY7nCAFB+fr5yvQCChX0rV66Uy0dVK8OnT5/yrKws3q9fPzJPSqGhobJ+CKat35Jc9dlKWPIj7ky2ceNGJuoI3GoMzMaDT9fARCp4KwnTSdq2bSs/USP6E3IRBazpMjvwM2rUKHbw4MGAXjMr4++IGwRlM7Sxw8PDm9yRTig+Pp4fOXLEtru+sVxpgE/fvn3ju3bt4uLOJn8oKxUSEsKnTp3KT5486cgP75NrP13sT2FhofzcWW5uroytWKEIYxUwgwPe5U+fPl3Las0/xoDGwCqcvLw8OZL28uVL9uLFCzktELZDuf/z50/5fzCxCpYbwQy3Xr16yfqhf//+LCEhQa5NgzpDdRKZXfyRBvxN2Doi5mGMZ4BmPAM04xmgGc8AzXgGaMYzQDOeAZrxDNCMZ4BmPAM04xmgGc8AzXgGaMYzQDOeAZrxDNAKY/8D/wQwgCEbYmMAAAAASUVORK5CYII=;" vertex="1" parent="1">
          <mxGeometry x="450" y="330" width="36" height="34.12" as="geometry" />
        </mxCell>
        <mxCell id="hysLP1X_mNI7AYVTysvt-3" value="sobl, tenhv, sotien" style="text;html=1;align=center;verticalAlign=middle;resizable=0;points=[];autosize=1;strokeColor=none;fillColor=none;" vertex="1" parent="1">
          <mxGeometry x="480" y="350" width="120" height="30" as="geometry" />
        </mxCell>
        <mxCell id="hysLP1X_mNI7AYVTysvt-4" value="" style="endArrow=none;html=1;rounded=0;" edge="1" parent="1">
          <mxGeometry width="50" height="50" relative="1" as="geometry">
            <mxPoint x="500" y="430" as="sourcePoint" />
            <mxPoint x="500" y="380" as="targetPoint" />
          </mxGeometry>
        </mxCell>
        <mxCell id="6bMBB1hP74ETGcrVjKi6-1" value="" style="shape=image;verticalLabelPosition=bottom;labelBackgroundColor=default;verticalAlign=top;aspect=fixed;imageAspect=0;image=data:image/png,iVBORw0KGgoAAAANSUhEUgAAAHkAAABdCAYAAACBx8lpAAAAAXNSR0IArs4c6QAAAARnQU1BAACxjwv8YQUAAAAJcEhZcwAADsMAAA7DAcdvqGQAAAYLSURBVHhe7Z25TixHFIbrmsAOLEFgC1/JFvAELHJsFsk3HSC2xJI6YMkthCWnLHLOkjqAywuwvADLEwAvgCBwyjVfm4Pbpeo7MNO1ddUnjZhuDXSd89M/1X1ONe8eHx8/qUyj+eL5a6bBZJETIIucAFnkBMgiJ0AWOQGyyAmQRU6ALHICZJETIIucAFnkBMgiJ0AWOQGyyAmQRU6AjkQ+PT1Vk5OT6v7+/nlP5q2QO3JILm3T8Zl8dnamhoaGnAyyaZAzckcOXdCVXT88PKipqSm1vr7+vCfTDnJFzsidK2r5m8zAZ2Zmsn1/BnJDjnycEF2L3NvbW3w9OjpSo6Oj6vLystjO/Ac5ITfkCCRnruha5N3dXdVqtYr3t7e3amxsTG1tbRXbGVXkgpyQGyBX5MwlXYvc19enDg8P1cbGxvMepVZXV5O3b7FnciGQI3JFzlxSy99kWF5eVufn52pgYKDYTtm+dXsmJ+SGHPmgNpFhZGREXVxc/M++uRbc29srtlOAWIm5bM/khNz4olaRQex7bW2t2OZSYXFxUS0sLDTavomNGIlVLo/IgQ971qldZIEAj4+PX2aS+/v7xW94E+2bmIiNGIGYiV1+0X1jTWSYmJhQ19fXanx8vNi+urpqnH2LPRMbECsxE3soWBUZsKqTkxOjfceOyZ6J1bc961gXWTDZNzPQm5ubYjsmGDNjD9WedZyJDFgYM83h4eFiG4sjWR8/fiy2Y4CxMmaxZ2IhppDsWcepyDA4OFgkZWlpqdjG6mZnZ9XKykqxHTKMkbGKPRMDsRBTyDgXWdjc3FQHBwcv9r29vR2sfYs9M0ZgzIydGGLAm8gwPT1ttO+QatSMxWTPjD0WvIoMYt9zc3PFNlYYSo1ar/0yxhjsWce7yAKVmZ2dnRf7JsFcf/q4S8YxObb8ojEmxua6elQXwYgM8/PzxXWm2LePFiO9NYexMCbGFitBiQzcyCepPuzbZM+MxWdxoQ6CExm4Y2Syb1s1an5muTWnbM+h3b3qhCBFFsS+bdaoTbXf2O1ZJ2iRwVSjrqvFyNSaw7Fit2ed4EUGLLPOFiOx5xBac1wQhchCHS1GJnv22ZrjgqhEBpN9v7ZGHWJrjguiExnEvk01apN9sy/U1hwXRCmyYKpRc6aW7Zv37Iul9muDqEWGz7UYxdCa44LoRQYsl2tb3b5jaM1xQSNEFhCyfJklsC8le9ZplMjY829/nij184VSH54s+rsPxX5uV75m9t1UGiFyefb89w+/KvVVv1Jffqv6f/r3rG43+2460Yusz557ShG9f9/fdvadAlGLzL1nffb81+8/qqH+HvX9Nz3qj1++rpx9J7W8lv8m89bX09nBf6ApXrw3fcbm6+7u7lOr1XoZA6+niZXxs+UXnyl/Dz+Dn2X6rM2X6/xFdyab7j1jya+ZPfMZPmuzdBkiUYlcVRp8y80NPmurdBkqUYhcd2lQ7n3XVboMneBFlr5nG6XBqtJlSH3fdRC0yNJYZ7M0aCpdhtL3XRdBioxlcplTbqyz2blRtm+5pubYjKEJ9h2cyFV9zy46NzgGx/LZ922DoEQWe5bKkY++Z47FMUNcttMpQYgsqwbL9uyz75ljmvq+GWOMi+a9i2xa1M2ZFELfs75shzEy1pgWzYNXkasWdYfUWCez7xgXzQteRI5xUXdMi+Z1nItc9cyNGBZ1Vy2aD92+nYnM9SZF+xifuVGm6pknITckOBHZ1BYb0zM3TOj2HXJDgnWRq9piY3rmRhXEUNUOHBLWRBZ7bnpbLLEQk9SziTW0fjIrIkthP6VVC9KQULZvchCCfdcusl7YT2nVgt5PFkpDQm0iY02mwn7T7LkdYt8hNSTUIrLYc0prfttR1ZDgw767Fpm/PSk8kqET5Jao3k8mcxVX1CKyYLOwHyvkQu8ni05kyPbcHt2+XdK1yPK8yWzP7RH7loYEV3QsMteDTXqgmSvIld6QYJt3LKN4fv9qKK9xOZDP3u5gpo3otgs0HYmciYtaJl6ZsMkiJ0AWOQGyyAmQRU6ALHICZJETIIucAFnkBMgiNx6l/gEo++tNMVZqaQAAAABJRU5ErkJggg==;" vertex="1" parent="1">
          <mxGeometry x="480" y="420" width="50" height="38.43" as="geometry" />
        </mxCell>
        <mxCell id="6bMBB1hP74ETGcrVjKi6-2" value="H.mahv = B. mahv" style="text;html=1;align=center;verticalAlign=middle;resizable=0;points=[];autosize=1;strokeColor=none;fillColor=none;" vertex="1" parent="1">
          <mxGeometry x="445" y="458.43" width="120" height="30" as="geometry" />
        </mxCell>
        <mxCell id="6bMBB1hP74ETGcrVjKi6-4" value="" style="shape=image;verticalLabelPosition=bottom;labelBackgroundColor=default;verticalAlign=top;aspect=fixed;imageAspect=0;image=data:image/png,iVBORw0KGgoAAAANSUhEUgAAABkAAAAcCAYAAACUJBTQAAAAAXNSR0IArs4c6QAAAARnQU1BAACxjwv8YQUAAAAJcEhZcwAADsMAAA7DAcdvqGQAAAIUSURBVEhL7ZY9y0FhGMcPYmAweUkGSchAsrD5BCizbPIyMUgmk8+Ab2AxKKWUTSiD1ctoQRmIlLge9+mcq3Puc+N5hmd5eq76pfu+/tf179xvUT0eD+B+OdTC76/Gv8mPQmHSaDS4YDDIEwqFuPV6LWTYUalUUJ/P54VZKsjpknI+n8HtdpMTxxONRuF+v8s0IoPBAHUGgwFWqxVTpzAhjMdj0Gg02KDZbCo0x+MRHA4HalqtlkIjwjQhVKtVbGA0GmGz2cjyuVwO84lEQpajeWlyvV4hEAhgo3g8jrnhcAgqlYqft1qtsNvtZLU0L00I8/kcdDodGrXbbTidTuB0OnGu1+sxa6W8NSHU63VsaLFYIJ1O47hQKDBraD6a3G43iEQi2FjE6/XyJ5FVQ/PRhLBYLECv16OBVquF2WzG1LL41o232Wzcc6mEEcc97w33/Aph9I1gOdNkMhnZUhHI5pNDwNLTfDTpdrvY2Ofzgd/vx3E2m2XW0Lw12W63YDab+YbkBZhMJjCdTmWvQb/fZ9ZKeWsSi8WwWblcxvlisYjzdrsdDoeDrI7mpQl5r8RGHo8HLpcL5sheSN+tVColq6VhmiyXS/5VJQ3UajWMRiOFhiyTaELodDoKjYjChFy+cDiMxaVSSZaXQr5A1JG9e/WGKUxqtRoWulyut7d6v9+DyWRCfTKZZOr+/xL9KP6KCcd9AQ7kGE63gNeyAAAAAElFTkSuQmCC;" vertex="1" parent="1">
          <mxGeometry x="492.5" y="488.43" width="25" height="28" as="geometry" />
        </mxCell>
        <mxCell id="6bMBB1hP74ETGcrVjKi6-6" value="" style="shape=image;verticalLabelPosition=bottom;labelBackgroundColor=default;verticalAlign=top;aspect=fixed;imageAspect=0;image=data:image/png,iVBORw0KGgoAAAANSUhEUgAAAGAAAABbCAYAAACMJYBWAAAAAXNSR0IArs4c6QAAAARnQU1BAACxjwv8YQUAAAAJcEhZcwAADsMAAA7DAcdvqGQAAAi7SURBVHhe7ZxpSBfPH8enzC4r04ys6ADDzEqtKMjo0CedWNFBBUYYkRQRdFA9iLDoIqIHEQU9SHoQHRB2C110YdGlllB0l2lmZaWlqTn/+Qyf7x9/Xz+6s9/v7s5W+4I3fmZxZ3e/7905dma2VUNDA2ce2miNfz004RmgGc8AzXgGaMYzQDOeAZrxDNCMZ4BmPAM04xmgmT/qVUR1dTV7/vw5e/XqFSstLWUfPnxgX758Yd+/f5f69esXq6+vZ3V1dUxcF+7lLrp3786OHz+OKRcbwDln+fn57PLly+zu3bvs3r177PXr13L7n0zv3r3Zu3fvMOVCA+CHPnz4MDtx4gQrKyvDrX8P/gbAo8rdoKtXr/Lx48fDzfBXSxjwn+vWXglDGb548WKWkpLCrl27hlv/HbQakJOTw+Lj49mhQ4dwy7+HNgO2b9/OZs2axT5+/Ihb/lEal0dOSDQV+aJFi8jy8V+Q1joAmpALFy5k2dnZuMXDUQNWr17Njh07hikPwLF+wO7du9natWsxFRytWrViQ4cOZYmJibISHzBgAOvRoweLjo5mnTp1Yu3bt2ft2rWT//v792/ZM/7x4wfLyMhgly5dktsB+L81a9awpUuXspCQENxqL3Ac6A3/n8blkV26c+cOb9OmTZPy0IzEj8Vnz57NRTeef/r0iTyOkWpqario+JvkLczk169fJ/exW7YbIO48PnDgwCYXraqoqCi+ZcsWLvoLZP5mVV9fz5csWdLkOOKp4pmZmbyiooLczy7ZbsDy5cubXKyKWrduzZctW8a/fv1K5huMRLHE09PTyeP27duXX7lyhdzPDtlqwP379+UPSV1oS4qIiOC5ublknlaptraWT5o0iTw+nPP69eu5qDvIfa2UrQakpqaSF9iSevbsyZ88eULmZ7UqKyv5yJEjyfMATZgwgZeWlpL7WiXbDLhx4wZ5US0pMjKSFxUVkfnZpbdv38rjUucDgiKpsLCQ3NcK2WbAjBkzyAtqTlAJnjlzhszLbuXk5JDn5FOXLl1sqxdsMaCkpMR0s1O0xcm8nNKKFSvI8/KpQ4cO/Ny5c+S+wcgWA/bs2UNeRHOCSre8vJzMyylBc7lPnz7k+fkkOnf84sWL5P6BypZXEadOncJIDdHcZN26dcOUHsQdznbs2IEpGhhznjlzJhOtO9wSPJa/ioCB865du8ruvwrQNRcVIROtH9yil7Fjx7Jbt25higaGFWGcGl59BIvlT8Dt27eVf3xg3Lhxrvnxga1bt2LUPO/fv2dz586V75mCxXIDHj58iJEaaWlpGLkDuCGSkpIw1Tw3b95kO3fuxFTgWG6A6ERhpEZycjJG7kG0iDBqmc2bN8t5SsFguQFQnqsimqpKd5vTzJ8/X9ZjRtTW1rJVq1ZhKjAsNwBmq6kimn0sNDQUU+4BxgkmTpyIqZY5e/asnMsUKJYbUFlZiZExopuPkfuYNm0aRsYEUxdYbgC0lVURXXyM3MfkyZOVR8lOnz4d8OwOyw0wU6R07NgRI/cRGRnJYmNjMdUy0Ow+evQopsxhuQFhYWEYGQNju25myJAhGBlz4cIFjMxhuQEwKK4K9JrdzODBgzEyBqZVmumA+rDcgKioKIyMcbsBgwYNwsiYmpoaVlRUhCl1LDcgJiYGI2MqKiowcidQD5ihoKAAI3W0GlBcXIyROzHbSnvz5g1G6lhuQFxcHEbGwAKMQMpNpwgPD8dIDVg2ZRbLDRg9erRy+7mhoYE9e/YMU+7DN7tOlaqqKozUsdyAzp07s2HDhmHKGLNvT50EKlYzmP1/wHIDgNTUVIyMefDgAUbuw+wPCqNqZrHFgDlz5mBkTOPJsm6jvLwcIzXg6TeLLQaMGDFCuTJ+9OiRa1tDJSUlGKkRyBClLQYA6enpGBkDa8XcCCwIN4OZFqAP2wzIzMxUfiTdukjv8ePHGKkBaxbMYpsBERER0gQVoCUUzKCGXZhpIMBMCVc9AQAM16k+Bdu2bcPIHcBnEcwUQaojaP7YagAsG8rKysJUy0A94KYm6fnz5zFSw0yd9x8aT5OzQ3V1dTwxMbHJND9KycnJcvEElY/TEj168hwpwQogKg8V2W4ASJTvcl4ldfL+2rt3L5mHk4Lp6NS5Nafs7GwyHxU5YgBo37595Mn7KywsjBcUFJB5OKV58+aR50YpISFBrjuj8lGRYwaAFixYQF6Ev2JiYvjnz5/JPOxWXl6e8rIq+D9YiELloypHDaiurpbLfqiL8deYMWPkEiIqH7sE5wd3NHU+lGAdGZWPGTlqAAhWPQ4fPpy8IH/BGrOqqioyHzuUkZFBngcluJHguxdUPmbkuAGgsrIynpSURF6Yv2ARHay4ofKxUps2bSKPTyk2NjbgxeL+0mIACJ6ElJQU8gL9BQvlgi1rmxM0ezds2EAelxLUT6KTRuYViLQZAIIyV7Vihgpv3bp1ltYL8CSmpaWRx6MUFxfHi4uLybwClVYDfNq/f7/8FgR10f6Kjo6WTVpY00XlpSIouw8cOCA/g0Adg9KUKVMs+1xCY7nCAFB+fr5yvQCChX0rV66Uy0dVK8OnT5/yrKws3q9fPzJPSqGhobJ+CKat35Jc9dlKWPIj7ky2ceNGJuoI3GoMzMaDT9fARCp4KwnTSdq2bSs/USP6E3IRBazpMjvwM2rUKHbw4MGAXjMr4++IGwRlM7Sxw8PDm9yRTig+Pp4fOXLEtru+sVxpgE/fvn3ju3bt4uLOJn8oKxUSEsKnTp3KT5486cgP75NrP13sT2FhofzcWW5uroytWKEIYxUwgwPe5U+fPl3Las0/xoDGwCqcvLw8OZL28uVL9uLFCzktELZDuf/z50/5fzCxCpYbwQy3Xr16yfqhf//+LCEhQa5NgzpDdRKZXfyRBvxN2Doi5mGMZ4BmPAM04xmgGc8AzXgGaMYzQDOeAZrxDNCMZ4BmPAM04xmgGc8AzXgGaMYzQDOeAZrxDNAKY/8D/wQwgCEbYmMAAAAASUVORK5CYII=;" vertex="1" parent="1">
          <mxGeometry x="414" y="570" width="36" height="34.12" as="geometry" />
        </mxCell>
        <mxCell id="6bMBB1hP74ETGcrVjKi6-8" value="" style="endArrow=none;html=1;rounded=0;" edge="1" parent="1">
          <mxGeometry width="50" height="50" relative="1" as="geometry">
            <mxPoint x="580" y="540" as="sourcePoint" />
            <mxPoint x="520" y="510" as="targetPoint" />
          </mxGeometry>
        </mxCell>
        <mxCell id="6bMBB1hP74ETGcrVjKi6-5" value="" style="endArrow=none;html=1;rounded=0;" edge="1" parent="1">
          <mxGeometry width="50" height="50" relative="1" as="geometry">
            <mxPoint x="360" y="630" as="sourcePoint" />
            <mxPoint x="480" y="510" as="targetPoint" />
          </mxGeometry>
        </mxCell>
        <mxCell id="6bMBB1hP74ETGcrVjKi6-10" value="" style="shape=image;verticalLabelPosition=bottom;labelBackgroundColor=default;verticalAlign=top;aspect=fixed;imageAspect=0;image=data:image/png,iVBORw0KGgoAAAANSUhEUgAAAHkAAABdCAYAAACBx8lpAAAAAXNSR0IArs4c6QAAAARnQU1BAACxjwv8YQUAAAAJcEhZcwAADsMAAA7DAcdvqGQAAAYLSURBVHhe7Z25TixHFIbrmsAOLEFgC1/JFvAELHJsFsk3HSC2xJI6YMkthCWnLHLOkjqAywuwvADLEwAvgCBwyjVfm4Pbpeo7MNO1ddUnjZhuDXSd89M/1X1ONe8eHx8/qUyj+eL5a6bBZJETIIucAFnkBMgiJ0AWOQGyyAmQRU6ALHICZJETIIucAFnkBMgiJ0AWOQGyyAmQRU6AjkQ+PT1Vk5OT6v7+/nlP5q2QO3JILm3T8Zl8dnamhoaGnAyyaZAzckcOXdCVXT88PKipqSm1vr7+vCfTDnJFzsidK2r5m8zAZ2Zmsn1/BnJDjnycEF2L3NvbW3w9OjpSo6Oj6vLystjO/Ac5ITfkCCRnruha5N3dXdVqtYr3t7e3amxsTG1tbRXbGVXkgpyQGyBX5MwlXYvc19enDg8P1cbGxvMepVZXV5O3b7FnciGQI3JFzlxSy99kWF5eVufn52pgYKDYTtm+dXsmJ+SGHPmgNpFhZGREXVxc/M++uRbc29srtlOAWIm5bM/khNz4olaRQex7bW2t2OZSYXFxUS0sLDTavomNGIlVLo/IgQ971qldZIEAj4+PX2aS+/v7xW94E+2bmIiNGIGYiV1+0X1jTWSYmJhQ19fXanx8vNi+urpqnH2LPRMbECsxE3soWBUZsKqTkxOjfceOyZ6J1bc961gXWTDZNzPQm5ubYjsmGDNjD9WedZyJDFgYM83h4eFiG4sjWR8/fiy2Y4CxMmaxZ2IhppDsWcepyDA4OFgkZWlpqdjG6mZnZ9XKykqxHTKMkbGKPRMDsRBTyDgXWdjc3FQHBwcv9r29vR2sfYs9M0ZgzIydGGLAm8gwPT1ttO+QatSMxWTPjD0WvIoMYt9zc3PFNlYYSo1ar/0yxhjsWce7yAKVmZ2dnRf7JsFcf/q4S8YxObb8ojEmxua6elQXwYgM8/PzxXWm2LePFiO9NYexMCbGFitBiQzcyCepPuzbZM+MxWdxoQ6CExm4Y2Syb1s1an5muTWnbM+h3b3qhCBFFsS+bdaoTbXf2O1ZJ2iRwVSjrqvFyNSaw7Fit2ed4EUGLLPOFiOx5xBac1wQhchCHS1GJnv22ZrjgqhEBpN9v7ZGHWJrjguiExnEvk01apN9sy/U1hwXRCmyYKpRc6aW7Zv37Iul9muDqEWGz7UYxdCa44LoRQYsl2tb3b5jaM1xQSNEFhCyfJklsC8le9ZplMjY829/nij184VSH54s+rsPxX5uV75m9t1UGiFyefb89w+/KvVVv1Jffqv6f/r3rG43+2460Yusz557ShG9f9/fdvadAlGLzL1nffb81+8/qqH+HvX9Nz3qj1++rpx9J7W8lv8m89bX09nBf6ApXrw3fcbm6+7u7lOr1XoZA6+niZXxs+UXnyl/Dz+Dn2X6rM2X6/xFdyab7j1jya+ZPfMZPmuzdBkiUYlcVRp8y80NPmurdBkqUYhcd2lQ7n3XVboMneBFlr5nG6XBqtJlSH3fdRC0yNJYZ7M0aCpdhtL3XRdBioxlcplTbqyz2blRtm+5pubYjKEJ9h2cyFV9zy46NzgGx/LZ922DoEQWe5bKkY++Z47FMUNcttMpQYgsqwbL9uyz75ljmvq+GWOMi+a9i2xa1M2ZFELfs75shzEy1pgWzYNXkasWdYfUWCez7xgXzQteRI5xUXdMi+Z1nItc9cyNGBZ1Vy2aD92+nYnM9SZF+xifuVGm6pknITckOBHZ1BYb0zM3TOj2HXJDgnWRq9piY3rmRhXEUNUOHBLWRBZ7bnpbLLEQk9SziTW0fjIrIkthP6VVC9KQULZvchCCfdcusl7YT2nVgt5PFkpDQm0iY02mwn7T7LkdYt8hNSTUIrLYc0prfttR1ZDgw767Fpm/PSk8kqET5Jao3k8mcxVX1CKyYLOwHyvkQu8ni05kyPbcHt2+XdK1yPK8yWzP7RH7loYEV3QsMteDTXqgmSvIld6QYJt3LKN4fv9qKK9xOZDP3u5gpo3otgs0HYmciYtaJl6ZsMkiJ0AWOQGyyAmQRU6ALHICZJETIIucAFnkBMgiNx6l/gEo++tNMVZqaQAAAABJRU5ErkJggg==;" vertex="1" parent="1">
          <mxGeometry x="337.5" y="630" width="50" height="38.43" as="geometry" />
        </mxCell>
        <mxCell id="6bMBB1hP74ETGcrVjKi6-11" value="l.malop = b.malop" style="text;html=1;align=center;verticalAlign=middle;resizable=0;points=[];autosize=1;strokeColor=none;fillColor=none;" vertex="1" parent="1">
          <mxGeometry x="290.5" y="658" width="120" height="30" as="geometry" />
        </mxCell>
        <mxCell id="6bMBB1hP74ETGcrVjKi6-12" value="" style="endArrow=none;html=1;rounded=0;" edge="1" parent="1">
          <mxGeometry width="50" height="50" relative="1" as="geometry">
            <mxPoint x="416.5" y="740" as="sourcePoint" />
            <mxPoint x="386.5" y="710" as="targetPoint" />
          </mxGeometry>
        </mxCell>
        <mxCell id="6bMBB1hP74ETGcrVjKi6-14" value="" style="shape=image;verticalLabelPosition=bottom;labelBackgroundColor=default;verticalAlign=top;aspect=fixed;imageAspect=0;image=data:image/png,iVBORw0KGgoAAAANSUhEUgAAABkAAAAcCAYAAACUJBTQAAAAAXNSR0IArs4c6QAAAARnQU1BAACxjwv8YQUAAAAJcEhZcwAADsMAAA7DAcdvqGQAAAIUSURBVEhL7ZY9y0FhGMcPYmAweUkGSchAsrD5BCizbPIyMUgmk8+Ab2AxKKWUTSiD1ctoQRmIlLge9+mcq3Puc+N5hmd5eq76pfu+/tf179xvUT0eD+B+OdTC76/Gv8mPQmHSaDS4YDDIEwqFuPV6LWTYUalUUJ/P54VZKsjpknI+n8HtdpMTxxONRuF+v8s0IoPBAHUGgwFWqxVTpzAhjMdj0Gg02KDZbCo0x+MRHA4HalqtlkIjwjQhVKtVbGA0GmGz2cjyuVwO84lEQpajeWlyvV4hEAhgo3g8jrnhcAgqlYqft1qtsNvtZLU0L00I8/kcdDodGrXbbTidTuB0OnGu1+sxa6W8NSHU63VsaLFYIJ1O47hQKDBraD6a3G43iEQi2FjE6/XyJ5FVQ/PRhLBYLECv16OBVquF2WzG1LL41o232Wzcc6mEEcc97w33/Aph9I1gOdNkMhnZUhHI5pNDwNLTfDTpdrvY2Ofzgd/vx3E2m2XW0Lw12W63YDab+YbkBZhMJjCdTmWvQb/fZ9ZKeWsSi8WwWblcxvlisYjzdrsdDoeDrI7mpQl5r8RGHo8HLpcL5sheSN+tVColq6VhmiyXS/5VJQ3UajWMRiOFhiyTaELodDoKjYjChFy+cDiMxaVSSZaXQr5A1JG9e/WGKUxqtRoWulyut7d6v9+DyWRCfTKZZOr+/xL9KP6KCcd9AQ7kGE63gNeyAAAAAElFTkSuQmCC;" vertex="1" parent="1">
          <mxGeometry x="350" y="688" width="25" height="28" as="geometry" />
        </mxCell>
        <mxCell id="6bMBB1hP74ETGcrVjKi6-15" value="l.malop" style="text;html=1;align=center;verticalAlign=middle;resizable=0;points=[];autosize=1;strokeColor=none;fillColor=none;" vertex="1" parent="1">
          <mxGeometry x="320.5" y="800" width="60" height="30" as="geometry" />
        </mxCell>
        <mxCell id="6bMBB1hP74ETGcrVjKi6-16" value="" style="shape=image;verticalLabelPosition=bottom;labelBackgroundColor=default;verticalAlign=top;aspect=fixed;imageAspect=0;image=data:image/png,iVBORw0KGgoAAAANSUhEUgAAAGAAAABbCAYAAACMJYBWAAAAAXNSR0IArs4c6QAAAARnQU1BAACxjwv8YQUAAAAJcEhZcwAADsMAAA7DAcdvqGQAAAi7SURBVHhe7ZxpSBfPH8enzC4r04ys6ADDzEqtKMjo0CedWNFBBUYYkRQRdFA9iLDoIqIHEQU9SHoQHRB2C110YdGlllB0l2lmZaWlqTn/+Qyf7x9/Xz+6s9/v7s5W+4I3fmZxZ3e/7905dma2VUNDA2ce2miNfz004RmgGc8AzXgGaMYzQDOeAZrxDNCMZ4BmPAM04xmgmT/qVUR1dTV7/vw5e/XqFSstLWUfPnxgX758Yd+/f5f69esXq6+vZ3V1dUxcF+7lLrp3786OHz+OKRcbwDln+fn57PLly+zu3bvs3r177PXr13L7n0zv3r3Zu3fvMOVCA+CHPnz4MDtx4gQrKyvDrX8P/gbAo8rdoKtXr/Lx48fDzfBXSxjwn+vWXglDGb548WKWkpLCrl27hlv/HbQakJOTw+Lj49mhQ4dwy7+HNgO2b9/OZs2axT5+/Ihb/lEal0dOSDQV+aJFi8jy8V+Q1joAmpALFy5k2dnZuMXDUQNWr17Njh07hikPwLF+wO7du9natWsxFRytWrViQ4cOZYmJibISHzBgAOvRoweLjo5mnTp1Yu3bt2ft2rWT//v792/ZM/7x4wfLyMhgly5dktsB+L81a9awpUuXspCQENxqL3Ac6A3/n8blkV26c+cOb9OmTZPy0IzEj8Vnz57NRTeef/r0iTyOkWpqario+JvkLczk169fJ/exW7YbIO48PnDgwCYXraqoqCi+ZcsWLvoLZP5mVV9fz5csWdLkOOKp4pmZmbyiooLczy7ZbsDy5cubXKyKWrduzZctW8a/fv1K5huMRLHE09PTyeP27duXX7lyhdzPDtlqwP379+UPSV1oS4qIiOC5ublknlaptraWT5o0iTw+nPP69eu5qDvIfa2UrQakpqaSF9iSevbsyZ88eULmZ7UqKyv5yJEjyfMATZgwgZeWlpL7WiXbDLhx4wZ5US0pMjKSFxUVkfnZpbdv38rjUucDgiKpsLCQ3NcK2WbAjBkzyAtqTlAJnjlzhszLbuXk5JDn5FOXLl1sqxdsMaCkpMR0s1O0xcm8nNKKFSvI8/KpQ4cO/Ny5c+S+wcgWA/bs2UNeRHOCSre8vJzMyylBc7lPnz7k+fkkOnf84sWL5P6BypZXEadOncJIDdHcZN26dcOUHsQdznbs2IEpGhhznjlzJhOtO9wSPJa/ioCB865du8ruvwrQNRcVIROtH9yil7Fjx7Jbt25higaGFWGcGl59BIvlT8Dt27eVf3xg3Lhxrvnxga1bt2LUPO/fv2dz586V75mCxXIDHj58iJEaaWlpGLkDuCGSkpIw1Tw3b95kO3fuxFTgWG6A6ERhpEZycjJG7kG0iDBqmc2bN8t5SsFguQFQnqsimqpKd5vTzJ8/X9ZjRtTW1rJVq1ZhKjAsNwBmq6kimn0sNDQUU+4BxgkmTpyIqZY5e/asnMsUKJYbUFlZiZExopuPkfuYNm0aRsYEUxdYbgC0lVURXXyM3MfkyZOVR8lOnz4d8OwOyw0wU6R07NgRI/cRGRnJYmNjMdUy0Ow+evQopsxhuQFhYWEYGQNju25myJAhGBlz4cIFjMxhuQEwKK4K9JrdzODBgzEyBqZVmumA+rDcgKioKIyMcbsBgwYNwsiYmpoaVlRUhCl1LDcgJiYGI2MqKiowcidQD5ihoKAAI3W0GlBcXIyROzHbSnvz5g1G6lhuQFxcHEbGwAKMQMpNpwgPD8dIDVg2ZRbLDRg9erRy+7mhoYE9e/YMU+7DN7tOlaqqKozUsdyAzp07s2HDhmHKGLNvT50EKlYzmP1/wHIDgNTUVIyMefDgAUbuw+wPCqNqZrHFgDlz5mBkTOPJsm6jvLwcIzXg6TeLLQaMGDFCuTJ+9OiRa1tDJSUlGKkRyBClLQYA6enpGBkDa8XcCCwIN4OZFqAP2wzIzMxUfiTdukjv8ePHGKkBaxbMYpsBERER0gQVoCUUzKCGXZhpIMBMCVc9AQAM16k+Bdu2bcPIHcBnEcwUQaojaP7YagAsG8rKysJUy0A94KYm6fnz5zFSw0yd9x8aT5OzQ3V1dTwxMbHJND9KycnJcvEElY/TEj168hwpwQogKg8V2W4ASJTvcl4ldfL+2rt3L5mHk4Lp6NS5Nafs7GwyHxU5YgBo37595Mn7KywsjBcUFJB5OKV58+aR50YpISFBrjuj8lGRYwaAFixYQF6Ev2JiYvjnz5/JPOxWXl6e8rIq+D9YiELloypHDaiurpbLfqiL8deYMWPkEiIqH7sE5wd3NHU+lGAdGZWPGTlqAAhWPQ4fPpy8IH/BGrOqqioyHzuUkZFBngcluJHguxdUPmbkuAGgsrIynpSURF6Yv2ARHay4ofKxUps2bSKPTyk2NjbgxeL+0mIACJ6ElJQU8gL9BQvlgi1rmxM0ezds2EAelxLUT6KTRuYViLQZAIIyV7Vihgpv3bp1ltYL8CSmpaWRx6MUFxfHi4uLybwClVYDfNq/f7/8FgR10f6Kjo6WTVpY00XlpSIouw8cOCA/g0Adg9KUKVMs+1xCY7nCAFB+fr5yvQCChX0rV66Uy0dVK8OnT5/yrKws3q9fPzJPSqGhobJ+CKat35Jc9dlKWPIj7ky2ceNGJuoI3GoMzMaDT9fARCp4KwnTSdq2bSs/USP6E3IRBazpMjvwM2rUKHbw4MGAXjMr4++IGwRlM7Sxw8PDm9yRTig+Pp4fOXLEtru+sVxpgE/fvn3ju3bt4uLOJn8oKxUSEsKnTp3KT5486cgP75NrP13sT2FhofzcWW5uroytWKEIYxUwgwPe5U+fPl3Las0/xoDGwCqcvLw8OZL28uVL9uLFCzktELZDuf/z50/5fzCxCpYbwQy3Xr16yfqhf//+LCEhQa5NgzpDdRKZXfyRBvxN2Doi5mGMZ4BmPAM04xmgGc8AzXgGaMYzQDOeAZrxDNCMZ4BmPAM04xmgGc8AzXgGaMYzQDOeAZrxDNAKY/8D/wQwgCEbYmMAAAAASUVORK5CYII=;" vertex="1" parent="1">
          <mxGeometry x="284.5" y="780" width="36" height="34.12" as="geometry" />
        </mxCell>
        <mxCell id="6bMBB1hP74ETGcrVjKi6-17" value="" style="endArrow=none;html=1;rounded=0;" edge="1" parent="1">
          <mxGeometry width="50" height="50" relative="1" as="geometry">
            <mxPoint x="250" y="810" as="sourcePoint" />
            <mxPoint x="350" y="700" as="targetPoint" />
          </mxGeometry>
        </mxCell>
        <mxCell id="6bMBB1hP74ETGcrVjKi6-19" value="" style="shape=image;verticalLabelPosition=bottom;labelBackgroundColor=default;verticalAlign=top;aspect=fixed;imageAspect=0;image=data:image/png,iVBORw0KGgoAAAANSUhEUgAAAHkAAABdCAYAAACBx8lpAAAAAXNSR0IArs4c6QAAAARnQU1BAACxjwv8YQUAAAAJcEhZcwAADsMAAA7DAcdvqGQAAAYLSURBVHhe7Z25TixHFIbrmsAOLEFgC1/JFvAELHJsFsk3HSC2xJI6YMkthCWnLHLOkjqAywuwvADLEwAvgCBwyjVfm4Pbpeo7MNO1ddUnjZhuDXSd89M/1X1ONe8eHx8/qUyj+eL5a6bBZJETIIucAFnkBMgiJ0AWOQGyyAmQRU6ALHICZJETIIucAFnkBMgiJ0AWOQGyyAmQRU6AjkQ+PT1Vk5OT6v7+/nlP5q2QO3JILm3T8Zl8dnamhoaGnAyyaZAzckcOXdCVXT88PKipqSm1vr7+vCfTDnJFzsidK2r5m8zAZ2Zmsn1/BnJDjnycEF2L3NvbW3w9OjpSo6Oj6vLystjO/Ac5ITfkCCRnruha5N3dXdVqtYr3t7e3amxsTG1tbRXbGVXkgpyQGyBX5MwlXYvc19enDg8P1cbGxvMepVZXV5O3b7FnciGQI3JFzlxSy99kWF5eVufn52pgYKDYTtm+dXsmJ+SGHPmgNpFhZGREXVxc/M++uRbc29srtlOAWIm5bM/khNz4olaRQex7bW2t2OZSYXFxUS0sLDTavomNGIlVLo/IgQ971qldZIEAj4+PX2aS+/v7xW94E+2bmIiNGIGYiV1+0X1jTWSYmJhQ19fXanx8vNi+urpqnH2LPRMbECsxE3soWBUZsKqTkxOjfceOyZ6J1bc961gXWTDZNzPQm5ubYjsmGDNjD9WedZyJDFgYM83h4eFiG4sjWR8/fiy2Y4CxMmaxZ2IhppDsWcepyDA4OFgkZWlpqdjG6mZnZ9XKykqxHTKMkbGKPRMDsRBTyDgXWdjc3FQHBwcv9r29vR2sfYs9M0ZgzIydGGLAm8gwPT1ttO+QatSMxWTPjD0WvIoMYt9zc3PFNlYYSo1ar/0yxhjsWce7yAKVmZ2dnRf7JsFcf/q4S8YxObb8ojEmxua6elQXwYgM8/PzxXWm2LePFiO9NYexMCbGFitBiQzcyCepPuzbZM+MxWdxoQ6CExm4Y2Syb1s1an5muTWnbM+h3b3qhCBFFsS+bdaoTbXf2O1ZJ2iRwVSjrqvFyNSaw7Fit2ed4EUGLLPOFiOx5xBac1wQhchCHS1GJnv22ZrjgqhEBpN9v7ZGHWJrjguiExnEvk01apN9sy/U1hwXRCmyYKpRc6aW7Zv37Iul9muDqEWGz7UYxdCa44LoRQYsl2tb3b5jaM1xQSNEFhCyfJklsC8le9ZplMjY829/nij184VSH54s+rsPxX5uV75m9t1UGiFyefb89w+/KvVVv1Jffqv6f/r3rG43+2460Yusz557ShG9f9/fdvadAlGLzL1nffb81+8/qqH+HvX9Nz3qj1++rpx9J7W8lv8m89bX09nBf6ApXrw3fcbm6+7u7lOr1XoZA6+niZXxs+UXnyl/Dz+Dn2X6rM2X6/xFdyab7j1jya+ZPfMZPmuzdBkiUYlcVRp8y80NPmurdBkqUYhcd2lQ7n3XVboMneBFlr5nG6XBqtJlSH3fdRC0yNJYZ7M0aCpdhtL3XRdBioxlcplTbqyz2blRtm+5pubYjKEJ9h2cyFV9zy46NzgGx/LZ922DoEQWe5bKkY++Z47FMUNcttMpQYgsqwbL9uyz75ljmvq+GWOMi+a9i2xa1M2ZFELfs75shzEy1pgWzYNXkasWdYfUWCez7xgXzQteRI5xUXdMi+Z1nItc9cyNGBZ1Vy2aD92+nYnM9SZF+xifuVGm6pknITckOBHZ1BYb0zM3TOj2HXJDgnWRq9piY3rmRhXEUNUOHBLWRBZ7bnpbLLEQk9SziTW0fjIrIkthP6VVC9KQULZvchCCfdcusl7YT2nVgt5PFkpDQm0iY02mwn7T7LkdYt8hNSTUIrLYc0prfttR1ZDgw767Fpm/PSk8kqET5Jao3k8mcxVX1CKyYLOwHyvkQu8ni05kyPbcHt2+XdK1yPK8yWzP7RH7loYEV3QsMteDTXqgmSvIld6QYJt3LKN4fv9qKK9xOZDP3u5gpo3otgs0HYmciYtaJl6ZsMkiJ0AWOQGyyAmQRU6ALHICZJETIIucAFnkBMgiNx6l/gEo++tNMVZqaQAAAABJRU5ErkJggg==;" vertex="1" parent="1">
          <mxGeometry x="220" y="814.12" width="50" height="38.43" as="geometry" />
        </mxCell>
        <mxCell id="6bMBB1hP74ETGcrVjKi6-20" value="Hocvien" style="ellipse;whiteSpace=wrap;html=1;" vertex="1" parent="1">
          <mxGeometry x="565" y="540" width="70" height="40" as="geometry" />
        </mxCell>
        <mxCell id="6bMBB1hP74ETGcrVjKi6-21" value="Bienlai" style="ellipse;whiteSpace=wrap;html=1;" vertex="1" parent="1">
          <mxGeometry x="414" y="740" width="70" height="40" as="geometry" />
        </mxCell>
        <mxCell id="6bMBB1hP74ETGcrVjKi6-23" value="k.makh = l.makh" style="text;html=1;align=center;verticalAlign=middle;resizable=0;points=[];autosize=1;strokeColor=none;fillColor=none;" vertex="1" parent="1">
          <mxGeometry x="180.5" y="848" width="110" height="30" as="geometry" />
        </mxCell>
        <mxCell id="6bMBB1hP74ETGcrVjKi6-24" value="" style="shape=image;verticalLabelPosition=bottom;labelBackgroundColor=default;verticalAlign=top;aspect=fixed;imageAspect=0;image=data:image/png,iVBORw0KGgoAAAANSUhEUgAAABkAAAAcCAYAAACUJBTQAAAAAXNSR0IArs4c6QAAAARnQU1BAACxjwv8YQUAAAAJcEhZcwAADsMAAA7DAcdvqGQAAAIUSURBVEhL7ZY9y0FhGMcPYmAweUkGSchAsrD5BCizbPIyMUgmk8+Ab2AxKKWUTSiD1ctoQRmIlLge9+mcq3Puc+N5hmd5eq76pfu+/tf179xvUT0eD+B+OdTC76/Gv8mPQmHSaDS4YDDIEwqFuPV6LWTYUalUUJ/P54VZKsjpknI+n8HtdpMTxxONRuF+v8s0IoPBAHUGgwFWqxVTpzAhjMdj0Gg02KDZbCo0x+MRHA4HalqtlkIjwjQhVKtVbGA0GmGz2cjyuVwO84lEQpajeWlyvV4hEAhgo3g8jrnhcAgqlYqft1qtsNvtZLU0L00I8/kcdDodGrXbbTidTuB0OnGu1+sxa6W8NSHU63VsaLFYIJ1O47hQKDBraD6a3G43iEQi2FjE6/XyJ5FVQ/PRhLBYLECv16OBVquF2WzG1LL41o232Wzcc6mEEcc97w33/Aph9I1gOdNkMhnZUhHI5pNDwNLTfDTpdrvY2Ofzgd/vx3E2m2XW0Lw12W63YDab+YbkBZhMJjCdTmWvQb/fZ9ZKeWsSi8WwWblcxvlisYjzdrsdDoeDrI7mpQl5r8RGHo8HLpcL5sheSN+tVColq6VhmiyXS/5VJQ3UajWMRiOFhiyTaELodDoKjYjChFy+cDiMxaVSSZaXQr5A1JG9e/WGKUxqtRoWulyut7d6v9+DyWRCfTKZZOr+/xL9KP6KCcd9AQ7kGE63gNeyAAAAAElFTkSuQmCC;" vertex="1" parent="1">
          <mxGeometry x="232.5" y="890" width="25" height="28" as="geometry" />
        </mxCell>
        <mxCell id="6bMBB1hP74ETGcrVjKi6-25" value="" style="endArrow=none;html=1;rounded=0;" edge="1" parent="1">
          <mxGeometry width="50" height="50" relative="1" as="geometry">
            <mxPoint x="460" y="950" as="sourcePoint" />
            <mxPoint x="270" y="900" as="targetPoint" />
          </mxGeometry>
        </mxCell>
        <mxCell id="6bMBB1hP74ETGcrVjKi6-26" value="l.malop = l.makh" style="text;html=1;align=center;verticalAlign=middle;resizable=0;points=[];autosize=1;strokeColor=none;fillColor=none;" vertex="1" parent="1">
          <mxGeometry x="375" y="889" width="110" height="30" as="geometry" />
        </mxCell>
        <mxCell id="6bMBB1hP74ETGcrVjKi6-27" value="" style="shape=image;verticalLabelPosition=bottom;labelBackgroundColor=default;verticalAlign=top;aspect=fixed;imageAspect=0;image=data:image/png,iVBORw0KGgoAAAANSUhEUgAAAGAAAABbCAYAAACMJYBWAAAAAXNSR0IArs4c6QAAAARnQU1BAACxjwv8YQUAAAAJcEhZcwAADsMAAA7DAcdvqGQAAAi7SURBVHhe7ZxpSBfPH8enzC4r04ys6ADDzEqtKMjo0CedWNFBBUYYkRQRdFA9iLDoIqIHEQU9SHoQHRB2C110YdGlllB0l2lmZaWlqTn/+Qyf7x9/Xz+6s9/v7s5W+4I3fmZxZ3e/7905dma2VUNDA2ce2miNfz004RmgGc8AzXgGaMYzQDOeAZrxDNCMZ4BmPAM04xmgmT/qVUR1dTV7/vw5e/XqFSstLWUfPnxgX758Yd+/f5f69esXq6+vZ3V1dUxcF+7lLrp3786OHz+OKRcbwDln+fn57PLly+zu3bvs3r177PXr13L7n0zv3r3Zu3fvMOVCA+CHPnz4MDtx4gQrKyvDrX8P/gbAo8rdoKtXr/Lx48fDzfBXSxjwn+vWXglDGb548WKWkpLCrl27hlv/HbQakJOTw+Lj49mhQ4dwy7+HNgO2b9/OZs2axT5+/Ihb/lEal0dOSDQV+aJFi8jy8V+Q1joAmpALFy5k2dnZuMXDUQNWr17Njh07hikPwLF+wO7du9natWsxFRytWrViQ4cOZYmJibISHzBgAOvRoweLjo5mnTp1Yu3bt2ft2rWT//v792/ZM/7x4wfLyMhgly5dktsB+L81a9awpUuXspCQENxqL3Ac6A3/n8blkV26c+cOb9OmTZPy0IzEj8Vnz57NRTeef/r0iTyOkWpqario+JvkLczk169fJ/exW7YbIO48PnDgwCYXraqoqCi+ZcsWLvoLZP5mVV9fz5csWdLkOOKp4pmZmbyiooLczy7ZbsDy5cubXKyKWrduzZctW8a/fv1K5huMRLHE09PTyeP27duXX7lyhdzPDtlqwP379+UPSV1oS4qIiOC5ublknlaptraWT5o0iTw+nPP69eu5qDvIfa2UrQakpqaSF9iSevbsyZ88eULmZ7UqKyv5yJEjyfMATZgwgZeWlpL7WiXbDLhx4wZ5US0pMjKSFxUVkfnZpbdv38rjUucDgiKpsLCQ3NcK2WbAjBkzyAtqTlAJnjlzhszLbuXk5JDn5FOXLl1sqxdsMaCkpMR0s1O0xcm8nNKKFSvI8/KpQ4cO/Ny5c+S+wcgWA/bs2UNeRHOCSre8vJzMyylBc7lPnz7k+fkkOnf84sWL5P6BypZXEadOncJIDdHcZN26dcOUHsQdznbs2IEpGhhznjlzJhOtO9wSPJa/ioCB865du8ruvwrQNRcVIROtH9yil7Fjx7Jbt25higaGFWGcGl59BIvlT8Dt27eVf3xg3Lhxrvnxga1bt2LUPO/fv2dz586V75mCxXIDHj58iJEaaWlpGLkDuCGSkpIw1Tw3b95kO3fuxFTgWG6A6ERhpEZycjJG7kG0iDBqmc2bN8t5SsFguQFQnqsimqpKd5vTzJ8/X9ZjRtTW1rJVq1ZhKjAsNwBmq6kimn0sNDQUU+4BxgkmTpyIqZY5e/asnMsUKJYbUFlZiZExopuPkfuYNm0aRsYEUxdYbgC0lVURXXyM3MfkyZOVR8lOnz4d8OwOyw0wU6R07NgRI/cRGRnJYmNjMdUy0Ow+evQopsxhuQFhYWEYGQNju25myJAhGBlz4cIFjMxhuQEwKK4K9JrdzODBgzEyBqZVmumA+rDcgKioKIyMcbsBgwYNwsiYmpoaVlRUhCl1LDcgJiYGI2MqKiowcidQD5ihoKAAI3W0GlBcXIyROzHbSnvz5g1G6lhuQFxcHEbGwAKMQMpNpwgPD8dIDVg2ZRbLDRg9erRy+7mhoYE9e/YMU+7DN7tOlaqqKozUsdyAzp07s2HDhmHKGLNvT50EKlYzmP1/wHIDgNTUVIyMefDgAUbuw+wPCqNqZrHFgDlz5mBkTOPJsm6jvLwcIzXg6TeLLQaMGDFCuTJ+9OiRa1tDJSUlGKkRyBClLQYA6enpGBkDa8XcCCwIN4OZFqAP2wzIzMxUfiTdukjv8ePHGKkBaxbMYpsBERER0gQVoCUUzKCGXZhpIMBMCVc9AQAM16k+Bdu2bcPIHcBnEcwUQaojaP7YagAsG8rKysJUy0A94KYm6fnz5zFSw0yd9x8aT5OzQ3V1dTwxMbHJND9KycnJcvEElY/TEj168hwpwQogKg8V2W4ASJTvcl4ldfL+2rt3L5mHk4Lp6NS5Nafs7GwyHxU5YgBo37595Mn7KywsjBcUFJB5OKV58+aR50YpISFBrjuj8lGRYwaAFixYQF6Ev2JiYvjnz5/JPOxWXl6e8rIq+D9YiELloypHDaiurpbLfqiL8deYMWPkEiIqH7sE5wd3NHU+lGAdGZWPGTlqAAhWPQ4fPpy8IH/BGrOqqioyHzuUkZFBngcluJHguxdUPmbkuAGgsrIynpSURF6Yv2ARHay4ofKxUps2bSKPTyk2NjbgxeL+0mIACJ6ElJQU8gL9BQvlgi1rmxM0ezds2EAelxLUT6KTRuYViLQZAIIyV7Vihgpv3bp1ltYL8CSmpaWRx6MUFxfHi4uLybwClVYDfNq/f7/8FgR10f6Kjo6WTVpY00XlpSIouw8cOCA/g0Adg9KUKVMs+1xCY7nCAFB+fr5yvQCChX0rV66Uy0dVK8OnT5/yrKws3q9fPzJPSqGhobJ+CKat35Jc9dlKWPIj7ky2ceNGJuoI3GoMzMaDT9fARCp4KwnTSdq2bSs/USP6E3IRBazpMjvwM2rUKHbw4MGAXjMr4++IGwRlM7Sxw8PDm9yRTig+Pp4fOXLEtru+sVxpgE/fvn3ju3bt4uLOJn8oKxUSEsKnTp3KT5486cgP75NrP13sT2FhofzcWW5uroytWKEIYxUwgwPe5U+fPl3Las0/xoDGwCqcvLw8OZL28uVL9uLFCzktELZDuf/z50/5fzCxCpYbwQy3Xr16yfqhf//+LCEhQa5NgzpDdRKZXfyRBvxN2Doi5mGMZ4BmPAM04xmgGc8AzXgGaMYzQDOeAZrxDNCMZ4BmPAM04xmgGc8AzXgGaMYzQDOeAZrxDNAKY/8D/wQwgCEbYmMAAAAASUVORK5CYII=;" vertex="1" parent="1">
          <mxGeometry x="337.5" y="878" width="36" height="34.12" as="geometry" />
        </mxCell>
        <mxCell id="6bMBB1hP74ETGcrVjKi6-28" value="" style="shape=image;verticalLabelPosition=bottom;labelBackgroundColor=default;verticalAlign=top;aspect=fixed;imageAspect=0;image=data:image/png,iVBORw0KGgoAAAANSUhEUgAAAHkAAABdCAYAAACBx8lpAAAAAXNSR0IArs4c6QAAAARnQU1BAACxjwv8YQUAAAAJcEhZcwAADsMAAA7DAcdvqGQAAAYLSURBVHhe7Z25TixHFIbrmsAOLEFgC1/JFvAELHJsFsk3HSC2xJI6YMkthCWnLHLOkjqAywuwvADLEwAvgCBwyjVfm4Pbpeo7MNO1ddUnjZhuDXSd89M/1X1ONe8eHx8/qUyj+eL5a6bBZJETIIucAFnkBMgiJ0AWOQGyyAmQRU6ALHICZJETIIucAFnkBMgiJ0AWOQGyyAmQRU6AjkQ+PT1Vk5OT6v7+/nlP5q2QO3JILm3T8Zl8dnamhoaGnAyyaZAzckcOXdCVXT88PKipqSm1vr7+vCfTDnJFzsidK2r5m8zAZ2Zmsn1/BnJDjnycEF2L3NvbW3w9OjpSo6Oj6vLystjO/Ac5ITfkCCRnruha5N3dXdVqtYr3t7e3amxsTG1tbRXbGVXkgpyQGyBX5MwlXYvc19enDg8P1cbGxvMepVZXV5O3b7FnciGQI3JFzlxSy99kWF5eVufn52pgYKDYTtm+dXsmJ+SGHPmgNpFhZGREXVxc/M++uRbc29srtlOAWIm5bM/khNz4olaRQex7bW2t2OZSYXFxUS0sLDTavomNGIlVLo/IgQ971qldZIEAj4+PX2aS+/v7xW94E+2bmIiNGIGYiV1+0X1jTWSYmJhQ19fXanx8vNi+urpqnH2LPRMbECsxE3soWBUZsKqTkxOjfceOyZ6J1bc961gXWTDZNzPQm5ubYjsmGDNjD9WedZyJDFgYM83h4eFiG4sjWR8/fiy2Y4CxMmaxZ2IhppDsWcepyDA4OFgkZWlpqdjG6mZnZ9XKykqxHTKMkbGKPRMDsRBTyDgXWdjc3FQHBwcv9r29vR2sfYs9M0ZgzIydGGLAm8gwPT1ttO+QatSMxWTPjD0WvIoMYt9zc3PFNlYYSo1ar/0yxhjsWce7yAKVmZ2dnRf7JsFcf/q4S8YxObb8ojEmxua6elQXwYgM8/PzxXWm2LePFiO9NYexMCbGFitBiQzcyCepPuzbZM+MxWdxoQ6CExm4Y2Syb1s1an5muTWnbM+h3b3qhCBFFsS+bdaoTbXf2O1ZJ2iRwVSjrqvFyNSaw7Fit2ed4EUGLLPOFiOx5xBac1wQhchCHS1GJnv22ZrjgqhEBpN9v7ZGHWJrjguiExnEvk01apN9sy/U1hwXRCmyYKpRc6aW7Zv37Iul9muDqEWGz7UYxdCa44LoRQYsl2tb3b5jaM1xQSNEFhCyfJklsC8le9ZplMjY829/nij184VSH54s+rsPxX5uV75m9t1UGiFyefb89w+/KvVVv1Jffqv6f/r3rG43+2460Yusz557ShG9f9/fdvadAlGLzL1nffb81+8/qqH+HvX9Nz3qj1++rpx9J7W8lv8m89bX09nBf6ApXrw3fcbm6+7u7lOr1XoZA6+niZXxs+UXnyl/Dz+Dn2X6rM2X6/xFdyab7j1jya+ZPfMZPmuzdBkiUYlcVRp8y80NPmurdBkqUYhcd2lQ7n3XVboMneBFlr5nG6XBqtJlSH3fdRC0yNJYZ7M0aCpdhtL3XRdBioxlcplTbqyz2blRtm+5pubYjKEJ9h2cyFV9zy46NzgGx/LZ922DoEQWe5bKkY++Z47FMUNcttMpQYgsqwbL9uyz75ljmvq+GWOMi+a9i2xa1M2ZFELfs75shzEy1pgWzYNXkasWdYfUWCez7xgXzQteRI5xUXdMi+Z1nItc9cyNGBZ1Vy2aD92+nYnM9SZF+xifuVGm6pknITckOBHZ1BYb0zM3TOj2HXJDgnWRq9piY3rmRhXEUNUOHBLWRBZ7bnpbLLEQk9SziTW0fjIrIkthP6VVC9KQULZvchCCfdcusl7YT2nVgt5PFkpDQm0iY02mwn7T7LkdYt8hNSTUIrLYc0prfttR1ZDgw767Fpm/PSk8kqET5Jao3k8mcxVX1CKyYLOwHyvkQu8ni05kyPbcHt2+XdK1yPK8yWzP7RH7loYEV3QsMteDTXqgmSvIld6QYJt3LKN4fv9qKK9xOZDP3u5gpo3otgs0HYmciYtaJl6ZsMkiJ0AWOQGyyAmQRU6ALHICZJETIIucAFnkBMgiNx6l/gEo++tNMVZqaQAAAABJRU5ErkJggg==;" vertex="1" parent="1">
          <mxGeometry x="464.95" y="940" width="65.05" height="50" as="geometry" />
        </mxCell>
        <mxCell id="6bMBB1hP74ETGcrVjKi6-29" value="l.magv = g.magv" style="text;html=1;align=center;verticalAlign=middle;resizable=0;points=[];autosize=1;strokeColor=none;fillColor=none;" vertex="1" parent="1">
          <mxGeometry x="450" y="990" width="110" height="30" as="geometry" />
        </mxCell>
        <mxCell id="6bMBB1hP74ETGcrVjKi6-30" value="" style="endArrow=none;html=1;rounded=0;" edge="1" parent="1">
          <mxGeometry width="50" height="50" relative="1" as="geometry">
            <mxPoint x="110" y="970" as="sourcePoint" />
            <mxPoint x="230" y="900" as="targetPoint" />
          </mxGeometry>
        </mxCell>
        <mxCell id="6bMBB1hP74ETGcrVjKi6-31" value="" style="shape=image;verticalLabelPosition=bottom;labelBackgroundColor=default;verticalAlign=top;aspect=fixed;imageAspect=0;image=data:image/png,iVBORw0KGgoAAAANSUhEUgAAAGAAAABbCAYAAACMJYBWAAAAAXNSR0IArs4c6QAAAARnQU1BAACxjwv8YQUAAAAJcEhZcwAADsMAAA7DAcdvqGQAAAi7SURBVHhe7ZxpSBfPH8enzC4r04ys6ADDzEqtKMjo0CedWNFBBUYYkRQRdFA9iLDoIqIHEQU9SHoQHRB2C110YdGlllB0l2lmZaWlqTn/+Qyf7x9/Xz+6s9/v7s5W+4I3fmZxZ3e/7905dma2VUNDA2ce2miNfz004RmgGc8AzXgGaMYzQDOeAZrxDNCMZ4BmPAM04xmgmT/qVUR1dTV7/vw5e/XqFSstLWUfPnxgX758Yd+/f5f69esXq6+vZ3V1dUxcF+7lLrp3786OHz+OKRcbwDln+fn57PLly+zu3bvs3r177PXr13L7n0zv3r3Zu3fvMOVCA+CHPnz4MDtx4gQrKyvDrX8P/gbAo8rdoKtXr/Lx48fDzfBXSxjwn+vWXglDGb548WKWkpLCrl27hlv/HbQakJOTw+Lj49mhQ4dwy7+HNgO2b9/OZs2axT5+/Ihb/lEal0dOSDQV+aJFi8jy8V+Q1joAmpALFy5k2dnZuMXDUQNWr17Njh07hikPwLF+wO7du9natWsxFRytWrViQ4cOZYmJibISHzBgAOvRoweLjo5mnTp1Yu3bt2ft2rWT//v792/ZM/7x4wfLyMhgly5dktsB+L81a9awpUuXspCQENxqL3Ac6A3/n8blkV26c+cOb9OmTZPy0IzEj8Vnz57NRTeef/r0iTyOkWpqario+JvkLczk169fJ/exW7YbIO48PnDgwCYXraqoqCi+ZcsWLvoLZP5mVV9fz5csWdLkOOKp4pmZmbyiooLczy7ZbsDy5cubXKyKWrduzZctW8a/fv1K5huMRLHE09PTyeP27duXX7lyhdzPDtlqwP379+UPSV1oS4qIiOC5ublknlaptraWT5o0iTw+nPP69eu5qDvIfa2UrQakpqaSF9iSevbsyZ88eULmZ7UqKyv5yJEjyfMATZgwgZeWlpL7WiXbDLhx4wZ5US0pMjKSFxUVkfnZpbdv38rjUucDgiKpsLCQ3NcK2WbAjBkzyAtqTlAJnjlzhszLbuXk5JDn5FOXLl1sqxdsMaCkpMR0s1O0xcm8nNKKFSvI8/KpQ4cO/Ny5c+S+wcgWA/bs2UNeRHOCSre8vJzMyylBc7lPnz7k+fkkOnf84sWL5P6BypZXEadOncJIDdHcZN26dcOUHsQdznbs2IEpGhhznjlzJhOtO9wSPJa/ioCB865du8ruvwrQNRcVIROtH9yil7Fjx7Jbt25higaGFWGcGl59BIvlT8Dt27eVf3xg3Lhxrvnxga1bt2LUPO/fv2dz586V75mCxXIDHj58iJEaaWlpGLkDuCGSkpIw1Tw3b95kO3fuxFTgWG6A6ERhpEZycjJG7kG0iDBqmc2bN8t5SsFguQFQnqsimqpKd5vTzJ8/X9ZjRtTW1rJVq1ZhKjAsNwBmq6kimn0sNDQUU+4BxgkmTpyIqZY5e/asnMsUKJYbUFlZiZExopuPkfuYNm0aRsYEUxdYbgC0lVURXXyM3MfkyZOVR8lOnz4d8OwOyw0wU6R07NgRI/cRGRnJYmNjMdUy0Ow+evQopsxhuQFhYWEYGQNju25myJAhGBlz4cIFjMxhuQEwKK4K9JrdzODBgzEyBqZVmumA+rDcgKioKIyMcbsBgwYNwsiYmpoaVlRUhCl1LDcgJiYGI2MqKiowcidQD5ihoKAAI3W0GlBcXIyROzHbSnvz5g1G6lhuQFxcHEbGwAKMQMpNpwgPD8dIDVg2ZRbLDRg9erRy+7mhoYE9e/YMU+7DN7tOlaqqKozUsdyAzp07s2HDhmHKGLNvT50EKlYzmP1/wHIDgNTUVIyMefDgAUbuw+wPCqNqZrHFgDlz5mBkTOPJsm6jvLwcIzXg6TeLLQaMGDFCuTJ+9OiRa1tDJSUlGKkRyBClLQYA6enpGBkDa8XcCCwIN4OZFqAP2wzIzMxUfiTdukjv8ePHGKkBaxbMYpsBERER0gQVoCUUzKCGXZhpIMBMCVc9AQAM16k+Bdu2bcPIHcBnEcwUQaojaP7YagAsG8rKysJUy0A94KYm6fnz5zFSw0yd9x8aT5OzQ3V1dTwxMbHJND9KycnJcvEElY/TEj168hwpwQogKg8V2W4ASJTvcl4ldfL+2rt3L5mHk4Lp6NS5Nafs7GwyHxU5YgBo37595Mn7KywsjBcUFJB5OKV58+aR50YpISFBrjuj8lGRYwaAFixYQF6Ev2JiYvjnz5/JPOxWXl6e8rIq+D9YiELloypHDaiurpbLfqiL8deYMWPkEiIqH7sE5wd3NHU+lGAdGZWPGTlqAAhWPQ4fPpy8IH/BGrOqqioyHzuUkZFBngcluJHguxdUPmbkuAGgsrIynpSURF6Yv2ARHay4ofKxUps2bSKPTyk2NjbgxeL+0mIACJ6ElJQU8gL9BQvlgi1rmxM0ezds2EAelxLUT6KTRuYViLQZAIIyV7Vihgpv3bp1ltYL8CSmpaWRx6MUFxfHi4uLybwClVYDfNq/f7/8FgR10f6Kjo6WTVpY00XlpSIouw8cOCA/g0Adg9KUKVMs+1xCY7nCAFB+fr5yvQCChX0rV66Uy0dVK8OnT5/yrKws3q9fPzJPSqGhobJ+CKat35Jc9dlKWPIj7ky2ceNGJuoI3GoMzMaDT9fARCp4KwnTSdq2bSs/USP6E3IRBazpMjvwM2rUKHbw4MGAXjMr4++IGwRlM7Sxw8PDm9yRTig+Pp4fOXLEtru+sVxpgE/fvn3ju3bt4uLOJn8oKxUSEsKnTp3KT5486cgP75NrP13sT2FhofzcWW5uroytWKEIYxUwgwPe5U+fPl3Las0/xoDGwCqcvLw8OZL28uVL9uLFCzktELZDuf/z50/5fzCxCpYbwQy3Xr16yfqhf//+LCEhQa5NgzpDdRKZXfyRBvxN2Doi5mGMZ4BmPAM04xmgGc8AzXgGaMYzQDOeAZrxDNCMZ4BmPAM04xmgGc8AzXgGaMYzQDOeAZrxDNAKY/8D/wQwgCEbYmMAAAAASUVORK5CYII=;" vertex="1" parent="1">
          <mxGeometry x="70" y="976.88" width="36" height="34.13" as="geometry" />
        </mxCell>
        <mxCell id="6bMBB1hP74ETGcrVjKi6-32" value="k.makh" style="text;html=1;align=center;verticalAlign=middle;resizable=0;points=[];autosize=1;strokeColor=none;fillColor=none;" vertex="1" parent="1">
          <mxGeometry x="90" y="988" width="60" height="30" as="geometry" />
        </mxCell>
        <mxCell id="6bMBB1hP74ETGcrVjKi6-33" value="" style="endArrow=classic;html=1;rounded=0;" edge="1" parent="1">
          <mxGeometry width="50" height="50" relative="1" as="geometry">
            <mxPoint x="110" y="1070" as="sourcePoint" />
            <mxPoint x="113" y="1020" as="targetPoint" />
          </mxGeometry>
        </mxCell>
        <mxCell id="6bMBB1hP74ETGcrVjKi6-34" value="&lt;div style=&quot;text-align: justify;&quot;&gt;&lt;span style=&quot;background-color: initial;&quot;&gt;CONDITION&amp;nbsp;&lt;/span&gt;&lt;/div&gt;&lt;b style=&quot;border-color: var(--border-color); text-align: left;&quot;&gt;&lt;div style=&quot;text-align: justify;&quot;&gt;&lt;b style=&quot;background-color: initial; border-color: var(--border-color);&quot;&gt;(AND&lt;/b&gt;&lt;span style=&quot;background-color: initial; font-weight: normal; text-align: center;&quot;&gt;&amp;nbsp;tenkh = “Yoga”&lt;/span&gt;&lt;/div&gt;&lt;/b&gt;&lt;div style=&quot;text-align: justify;&quot;&gt;&lt;span style=&quot;background-color: initial; border-color: var(--border-color); text-align: left;&quot;&gt;&lt;span style=&quot;white-space-collapse: preserve;&quot;&gt;&amp;nbsp;&amp;nbsp;&amp;nbsp;&amp;nbsp;&lt;/span&gt;&lt;/span&gt;&lt;b style=&quot;background-color: initial; border-color: var(--border-color); text-align: left;&quot;&gt;AND&lt;/b&gt;&lt;span style=&quot;background-color: initial; text-align: left;&quot;&gt;&amp;nbsp;ngaybd = “01/06/2016”&amp;nbsp;&lt;/span&gt;&lt;b style=&quot;background-color: initial; border-color: var(--border-color); text-align: left;&quot;&gt;AND&lt;/b&gt;&lt;span style=&quot;background-color: initial; text-align: left;&quot;&gt;&amp;nbsp;ngaykt = “01/12/2016”)&lt;/span&gt;&lt;/div&gt;" style="text;html=1;align=center;verticalAlign=middle;resizable=0;points=[];autosize=1;strokeColor=none;fillColor=none;" vertex="1" parent="1">
          <mxGeometry x="-90" y="1063" width="340" height="60" as="geometry" />
        </mxCell>
      </root>
    </mxGraphModel>
  </diagram>
</mxfile>
